<svg width="40" height="40" viewBox="0 0 40 40" fill="none" xmlns="http://www.w3.org/2000/svg">
<path d="M24.9999 5H8.33327C6.48327 5 4.99993 6.48333 4.99993 8.33333V18.0333C5.99993 17.0667 7.13327 16.3333 8.33327 15.8333V8.33333H19.9999V18.0333C20.0499 18.0833 20.1166 18.1167 20.1666 18.1667C20.7333 18.7333 21.2166 19.35 21.6166 20H31.6666V31.6667H21.6166C21.2166 32.3167 20.7333 32.9333 20.1666 33.5C19.5666 34.0833 18.9166 34.5667 18.2333 35H31.6666C33.5166 35 34.9999 33.5167 34.9999 31.6667V15L24.9999 5ZM23.3333 16.6667V7.5L32.4999 16.6667H23.3333ZM12.4999 18.3333C8.33327 18.3333 4.99993 21.6667 4.99993 25.8333C4.99993 27.3 5.4166 28.6833 6.14993 29.8333L1.0166 35L3.33327 37.3167L8.53327 32.2C9.68327 32.9167 11.0499 33.3333 12.4999 33.3333C16.6666 33.3333 19.9999 30 19.9999 25.8333C19.9999 21.6667 16.6666 18.3333 12.4999 18.3333ZM12.4999 30C10.1999 30 8.33327 28.1333 8.33327 25.8333C8.33327 23.5333 10.1999 21.6667 12.4999 21.6667C14.7999 21.6667 16.6666 23.5333 16.6666 25.8333C16.6666 28.1333 14.7999 30 12.4999 30Z" fill="#888C96"/>
</svg>
