<svg width="91" height="48" viewBox="0 0 91 48" fill="none" xmlns="http://www.w3.org/2000/svg">
<path fill-rule="evenodd" clip-rule="evenodd" d="M9.08102 21.8084C7.28054 22.1405 5.73661 23.1495 4.77879 24.6203C4.06914 25.7099 3.75595 26.9636 3.82993 28.4189C3.91022 29.9998 4.45871 31.2831 5.54241 32.4256C7.90649 34.9179 12.3035 35.0601 14.7991 32.7252L15.1394 32.4068L14.567 31.8337L13.9946 31.2608L13.5771 31.6235C12.6948 32.3902 11.7339 32.7349 10.4792 32.7349C9.47757 32.7349 8.9843 32.6272 8.12619 32.2212C6.95249 31.6658 6.08027 30.6293 5.7112 29.3514C5.56582 28.8477 5.56474 27.2714 5.70954 26.7556C6.27638 24.7352 8.17435 23.3425 10.368 23.3372C11.6254 23.3342 12.6091 23.6723 13.4859 24.4087L13.9736 24.8183L14.4274 24.3848C14.677 24.1465 14.9306 23.9077 14.991 23.8542C15.1656 23.6996 15.1264 23.6226 14.6786 23.2399C13.1858 21.9644 11.1117 21.4339 9.08102 21.8084ZM21.2863 21.8001C19.8318 22.0833 18.7903 22.6159 17.7757 23.5956C16.2914 25.0285 15.6502 27.2218 16.0935 29.3496C16.5839 31.7036 18.219 33.432 20.632 34.1468C21.4588 34.3917 22.9956 34.448 23.8974 34.2666C26.6764 33.7072 28.6621 31.6897 29.054 29.0272C29.4722 26.1862 28.0221 23.4727 25.4649 22.3108C24.3104 21.7861 22.4963 21.5645 21.2863 21.8001ZM81.4666 21.8059C79.9537 22.0784 78.8956 22.7929 78.3944 23.8803C77.8451 25.0722 78.06 26.5605 78.8969 27.3614C79.5397 27.9765 80.4354 28.3603 82.3958 28.8605C83.8104 29.2214 84.3522 29.4074 84.788 29.682C85.4589 30.1047 85.6882 30.8926 85.3532 31.6249C85.1587 32.0504 84.8061 32.3434 84.203 32.5804C83.787 32.7439 83.5719 32.7689 82.5618 32.7718C81.5615 32.7747 81.3184 32.7484 80.8182 32.5834C79.9431 32.2945 79.2723 31.9538 78.8465 31.5815C78.636 31.3975 78.4472 31.2755 78.4268 31.3105C78.0882 31.8921 77.7876 32.4989 77.7876 32.6012C77.7876 32.7589 78.5078 33.337 79.0282 33.5971C79.6014 33.8836 80.5862 34.1903 81.3 34.3047C82.0834 34.4302 83.6973 34.3683 84.3647 34.187C84.8401 34.0579 85.5362 33.764 85.7456 33.6039C86.7546 32.8323 87.1807 32.1042 87.2361 31.0568C87.2912 30.013 87.0435 29.3578 86.348 28.7071C85.7311 28.13 84.9452 27.8057 82.8163 27.25C80.3697 26.6114 79.8644 26.2615 79.8637 25.2059C79.8631 24.3319 80.365 23.7368 81.3444 23.4503C81.9272 23.2798 83.373 23.2605 84.0147 23.4145C84.5855 23.5515 85.5223 23.9319 85.8366 24.1542C85.9676 24.2469 86.1102 24.3226 86.1536 24.3226C86.2851 24.3226 86.8262 22.9747 86.7388 22.8649C86.6193 22.7146 85.3537 22.1285 84.8451 21.988C83.724 21.6781 82.532 21.6139 81.4666 21.8059ZM29.7968 21.9009C29.7968 22.0366 30.1356 23.0495 32.7429 30.709C33.4058 32.6565 33.9482 34.2616 33.9482 34.276C33.9482 34.2902 34.3206 34.302 34.7756 34.302C35.4793 34.302 35.6143 34.2804 35.6789 34.1576C35.7207 34.0783 35.9635 33.3902 36.2187 32.6286C36.4738 31.867 36.8123 30.8835 36.9709 30.443C37.1295 30.0026 37.6373 28.5473 38.0995 27.2092C38.5617 25.871 38.9679 24.7479 39.0022 24.7134C39.0366 24.6789 39.1617 24.9386 39.2804 25.2907C39.3989 25.6427 39.8559 26.97 40.2959 28.2401C40.7359 29.5102 41.3609 31.3288 41.685 32.2813C42.009 33.2339 42.3083 34.0795 42.3501 34.1604C42.4167 34.2895 42.5292 34.3048 43.263 34.2841L44.0999 34.2607L46.0879 28.405C48.3671 21.6921 48.3082 21.8718 48.2475 21.8115C48.2222 21.7864 47.8541 21.7659 47.4296 21.7659C46.5912 21.7659 46.5742 21.7753 46.4005 22.334C46.3395 22.5302 43.8982 29.6745 43.4705 30.9081C43.3707 31.1961 43.254 31.4305 43.2111 31.4289C43.1398 31.4262 42.6714 30.0964 40.6205 24.0751C40.2265 22.9184 39.8661 21.9243 39.8195 21.8659C39.7595 21.7906 39.5281 21.7667 39.0225 21.7834L38.3101 21.8071L38.0389 22.5494C37.8898 22.9576 37.6204 23.7184 37.4401 24.2401C37.26 24.7617 36.9755 25.5782 36.8081 26.0545C35.8811 28.692 35.4959 29.8002 35.2746 30.4669C35.013 31.2543 34.9019 31.4829 34.8203 31.4018C34.7927 31.3744 34.0447 29.2043 33.1584 26.5795L31.5468 21.8071L30.6718 21.7837C29.8934 21.7629 29.7968 21.7758 29.7968 21.9009ZM50.1144 21.8178C50.0822 21.8497 50.0559 24.6717 50.0559 28.0889V34.302H50.9277H51.7995L51.8022 29.9102C51.8046 25.9442 51.8171 25.5344 51.9323 25.6834C52.0024 25.7741 52.2669 26.2009 52.52 26.6318C52.773 27.0628 53.2332 27.8422 53.5425 28.3638C53.8518 28.8855 54.4879 29.9617 54.9561 30.7556C55.4243 31.5494 55.8801 32.3194 55.969 32.4669C56.1213 32.7196 56.1575 32.7348 56.6013 32.7321L57.0719 32.7292L57.768 31.5156C58.1508 30.8481 58.5472 30.1721 58.6487 30.0133C58.7502 29.8545 59.1438 29.1865 59.5232 28.5288C60.9834 25.9979 61.3112 25.4683 61.3771 25.5337C61.4066 25.5631 61.4309 27.548 61.4309 29.9446V34.302H62.2617H63.0926L63.0712 28.0545L63.05 21.8071L62.4272 21.786C62.0847 21.7743 61.7599 21.7938 61.7053 21.8293C61.6507 21.8647 61.4041 22.2454 61.1572 22.6751C60.9103 23.1049 60.3054 24.1432 59.8131 24.9824C59.3206 25.8215 58.637 26.9906 58.294 27.5803C57.9508 28.17 57.539 28.8751 57.3788 29.1473C57.2186 29.4195 56.9861 29.8217 56.8621 30.0412L56.6369 30.4401L56.476 30.2061C56.3876 30.0774 55.9652 29.3782 55.5372 28.6525C55.1093 27.9267 54.5296 26.9432 54.2489 26.4669C53.9682 25.9906 53.5088 25.2112 53.2279 24.7349C52.947 24.2586 52.4453 23.405 52.113 22.838L51.5089 21.8071L50.8409 21.7834C50.4734 21.7704 50.1465 21.7858 50.1144 21.8178ZM70.2678 21.829C70.2189 21.8623 70.1196 22.038 70.0469 22.2195C69.9743 22.4009 69.7476 22.9019 69.5432 23.3329C69.3388 23.7638 68.8822 24.7473 68.5285 25.5184C68.1748 26.2896 67.7811 27.1432 67.6536 27.4154C67.5261 27.6875 67.1429 28.5226 66.802 29.271C66.0802 30.8555 65.4211 32.2829 64.8842 33.4243C64.6745 33.87 64.503 34.2511 64.503 34.271C64.503 34.291 64.9224 34.2968 65.4351 34.2841L66.3673 34.2607L66.7202 33.4772C66.9143 33.0463 67.2422 32.3314 67.4488 31.8886L67.8246 31.0836L71.0328 31.1051L74.241 31.1267L74.6916 32.1164C74.9393 32.6607 75.2684 33.3751 75.4229 33.704L75.7037 34.302H76.6212C77.1257 34.302 77.5385 34.2842 77.5385 34.2625C77.5385 34.2408 77.4117 33.9532 77.2566 33.6234C76.972 33.0179 75.8513 30.5861 75.1559 29.0648C74.9486 28.6112 74.5634 27.7762 74.3001 27.2092C74.0366 26.6422 73.4397 25.3432 72.9734 24.3226C72.5071 23.3019 72.0658 22.337 71.9927 22.1782C71.9195 22.0195 71.8204 21.8623 71.7723 21.829C71.7243 21.7956 71.3861 21.7684 71.0208 21.7684C70.6554 21.7684 70.3166 21.7956 70.2678 21.829ZM23.8522 23.4958C25.8069 23.9923 27.038 25.397 27.3018 27.4315C27.5378 29.2517 26.8082 30.9666 25.399 31.9041C24.4348 32.5455 23.7741 32.7352 22.5069 32.7345C21.0344 32.7336 19.9337 32.285 18.9741 31.2947C18.0012 30.2907 17.6063 29.0199 17.7685 27.4154C18.0557 24.5758 20.8973 22.7451 23.8522 23.4958ZM71.2431 24.4669C71.3373 24.6824 71.5072 25.0628 71.6206 25.3123C72.9027 28.1356 73.4687 29.454 73.4272 29.5208C73.3525 29.6406 68.5714 29.6283 68.5714 29.5082C68.5714 29.4573 68.707 29.1139 68.8727 28.7453C69.0384 28.3768 69.2405 27.9267 69.3218 27.7453C70.2255 25.7275 70.9212 24.1873 70.9517 24.137C71.0224 24.02 71.0721 24.0761 71.2431 24.4669Z" fill="#197DD9"/>
<path d="M7.1874 42.1869C6.97129 42.1869 6.77735 42.1412 6.60558 42.0499C6.43657 41.9585 6.30358 41.8308 6.20661 41.6668C6.10964 41.5002 6.06116 41.3134 6.06116 41.1064C6.06116 40.8995 6.10964 40.714 6.20661 40.5501C6.30358 40.3861 6.43657 40.2584 6.60558 40.1671C6.77735 40.0757 6.97129 40.03 7.1874 40.03C7.3758 40.03 7.54342 40.0663 7.69026 40.1388C7.83987 40.2087 7.95762 40.3122 8.04351 40.4493L7.82325 40.5944C7.75121 40.4896 7.65979 40.4116 7.54896 40.3606C7.43814 40.3068 7.31762 40.2799 7.1874 40.2799C7.02948 40.2799 6.88679 40.3149 6.75934 40.3848C6.63467 40.452 6.53631 40.5487 6.46428 40.675C6.39501 40.8014 6.36038 40.9452 6.36038 41.1064C6.36038 41.2704 6.39501 41.4155 6.46428 41.5419C6.53631 41.6655 6.63467 41.7623 6.75934 41.8321C6.88679 41.8993 7.02948 41.9329 7.1874 41.9329C7.31762 41.9329 7.43814 41.9074 7.54896 41.8563C7.65979 41.8053 7.75121 41.7273 7.82325 41.6225L8.04351 41.7676C7.95762 41.9047 7.83987 42.0095 7.69026 42.0821C7.54065 42.152 7.37303 42.1869 7.1874 42.1869Z" fill="white"/>
<path d="M9.38784 40.03C9.67321 40.03 9.89209 40.0999 10.0445 40.2396C10.1969 40.3767 10.273 40.581 10.273 40.8524V42.1668H9.99044V41.8362C9.92395 41.9464 9.82559 42.0324 9.69538 42.0942C9.56793 42.156 9.41555 42.1869 9.23823 42.1869C8.99442 42.1869 8.80048 42.1305 8.65641 42.0176C8.51234 41.9047 8.4403 41.7555 8.4403 41.5701C8.4403 41.39 8.50679 41.2449 8.63978 41.1347C8.77554 41.0245 8.99026 40.9694 9.28394 40.9694H9.97797V40.8403C9.97797 40.6576 9.92533 40.5192 9.82005 40.4251C9.71477 40.3283 9.561 40.2799 9.35875 40.2799C9.22022 40.2799 9.08723 40.3028 8.95978 40.3485C8.83234 40.3915 8.7229 40.452 8.63147 40.5299L8.49848 40.3162C8.60931 40.2248 8.74229 40.155 8.89745 40.1066C9.0526 40.0555 9.21606 40.03 9.38784 40.03ZM9.28394 41.9612C9.45018 41.9612 9.59286 41.9249 9.712 41.8523C9.83113 41.777 9.91979 41.6695 9.97797 41.5298V41.183H9.29226C8.91823 41.183 8.73121 41.3094 8.73121 41.562C8.73121 41.6857 8.7797 41.7838 8.87667 41.8563C8.97364 41.9262 9.1094 41.9612 9.28394 41.9612Z" fill="white"/>
<path d="M12.2257 42.0378C12.1702 42.0861 12.101 42.1238 12.0179 42.1506C11.9375 42.1748 11.853 42.1869 11.7644 42.1869C11.5593 42.1869 11.4014 42.1332 11.2906 42.0257C11.1798 41.9181 11.1243 41.7663 11.1243 41.5701V40.288H10.7337V40.0461H11.1243V39.5825H11.4194V40.0461H12.0844V40.288H11.4194V41.554C11.4194 41.6803 11.4513 41.777 11.515 41.8442C11.5815 41.9087 11.6757 41.941 11.7976 41.941C11.8586 41.941 11.9167 41.9316 11.9721 41.9128C12.0303 41.894 12.0802 41.8671 12.1218 41.8321L12.2257 42.0378Z" fill="white"/>
<path d="M13.8572 42.0378C13.8018 42.0861 13.7325 42.1238 13.6494 42.1506C13.569 42.1748 13.4845 42.1869 13.3959 42.1869C13.1908 42.1869 13.0329 42.1332 12.9221 42.0257C12.8113 41.9181 12.7559 41.7663 12.7559 41.5701V40.288H12.3652V40.0461H12.7559V39.5825H13.0509V40.0461H13.7159V40.288H13.0509V41.554C13.0509 41.6803 13.0828 41.777 13.1465 41.8442C13.213 41.9087 13.3072 41.941 13.4291 41.941C13.4901 41.941 13.5482 41.9316 13.6037 41.9128C13.6618 41.894 13.7117 41.8671 13.7533 41.8321L13.8572 42.0378Z" fill="white"/>
<path d="M14.3943 39.1753H14.6894V42.1668H14.3943V39.1753Z" fill="white"/>
<path d="M17.4138 41.1951H15.5852C15.6018 41.4155 15.6891 41.5943 15.847 41.7313C16.0049 41.8657 16.2044 41.9329 16.4455 41.9329C16.5812 41.9329 16.7059 41.9101 16.8195 41.8644C16.9331 41.816 17.0314 41.7461 17.1146 41.6547L17.2808 41.8402C17.1838 41.9531 17.0619 42.0391 16.9151 42.0982C16.771 42.1574 16.6117 42.1869 16.4372 42.1869C16.2127 42.1869 16.0133 42.1412 15.8387 42.0499C15.6669 41.9558 15.5326 41.8268 15.4356 41.6628C15.3386 41.4989 15.2901 41.3134 15.2901 41.1064C15.2901 40.8995 15.3358 40.714 15.4273 40.5501C15.5215 40.3861 15.6489 40.2584 15.8096 40.1671C15.9731 40.0757 16.1559 40.03 16.3582 40.03C16.5604 40.03 16.7419 40.0757 16.9026 40.1671C17.0633 40.2584 17.1894 40.3861 17.2808 40.5501C17.3722 40.7113 17.4179 40.8968 17.4179 41.1064L17.4138 41.1951ZM16.3582 40.2759C16.1476 40.2759 15.9703 40.3418 15.8262 40.4735C15.6849 40.6025 15.6046 40.7718 15.5852 40.9815H17.1353C17.1159 40.7718 17.0342 40.6025 16.8901 40.4735C16.7488 40.3418 16.5715 40.2759 16.3582 40.2759Z" fill="white"/>
<path d="M21.8325 40.03C22.1067 40.03 22.3215 40.1066 22.4766 40.2598C22.6345 40.413 22.7135 40.6388 22.7135 40.9371V42.1668H22.4184V40.9653C22.4184 40.7449 22.363 40.5769 22.2522 40.4614C22.1441 40.3458 21.9904 40.288 21.7909 40.288C21.5637 40.288 21.385 40.3565 21.2548 40.4936C21.1246 40.628 21.0595 40.8148 21.0595 41.054V42.1668H20.7644V40.9653C20.7644 40.7449 20.709 40.5769 20.5982 40.4614C20.4901 40.3458 20.335 40.288 20.1327 40.288C19.9083 40.288 19.7296 40.3565 19.5966 40.4936C19.4664 40.628 19.4013 40.8148 19.4013 41.054V42.1668H19.1062V40.0461H19.3888V40.4331C19.4664 40.3041 19.5744 40.2047 19.713 40.1348C19.8515 40.0649 20.0108 40.03 20.1909 40.03C20.3737 40.03 20.5317 40.0676 20.6647 40.1429C20.8004 40.2181 20.9015 40.3297 20.968 40.4775C21.0484 40.3377 21.1634 40.2289 21.313 40.1509C21.4654 40.0703 21.6385 40.03 21.8325 40.03Z" fill="white"/>
<path d="M24.4153 42.1869C24.2048 42.1869 24.015 42.1412 23.846 42.0499C23.677 41.9558 23.544 41.8268 23.447 41.6628C23.35 41.4989 23.3016 41.3134 23.3016 41.1064C23.3016 40.8995 23.35 40.714 23.447 40.5501C23.544 40.3861 23.677 40.2584 23.846 40.1671C24.015 40.0757 24.2048 40.03 24.4153 40.03C24.6259 40.03 24.8157 40.0757 24.9847 40.1671C25.1537 40.2584 25.2853 40.3861 25.3795 40.5501C25.4765 40.714 25.525 40.8995 25.525 41.1064C25.525 41.3134 25.4765 41.4989 25.3795 41.6628C25.2853 41.8268 25.1537 41.9558 24.9847 42.0499C24.8157 42.1412 24.6259 42.1869 24.4153 42.1869ZM24.4153 41.9329C24.5705 41.9329 24.709 41.8993 24.8309 41.8321C24.9556 41.7623 25.0526 41.6642 25.1218 41.5378C25.1911 41.4115 25.2257 41.2677 25.2257 41.1064C25.2257 40.9452 25.1911 40.8014 25.1218 40.675C25.0526 40.5487 24.9556 40.452 24.8309 40.3848C24.709 40.3149 24.5705 40.2799 24.4153 40.2799C24.2602 40.2799 24.1203 40.3149 23.9956 40.3848C23.8737 40.452 23.7767 40.5487 23.7047 40.675C23.6354 40.8014 23.6008 40.9452 23.6008 41.1064C23.6008 41.2677 23.6354 41.4115 23.7047 41.5378C23.7767 41.6642 23.8737 41.7623 23.9956 41.8321C24.1203 41.8993 24.2602 41.9329 24.4153 41.9329Z" fill="white"/>
<path d="M27.2411 40.03C27.5154 40.03 27.7329 40.1079 27.8936 40.2638C28.0571 40.417 28.1388 40.6415 28.1388 40.9371V42.1668H27.8437V40.9653C27.8437 40.7449 27.7869 40.5769 27.6733 40.4614C27.5598 40.3458 27.3977 40.288 27.1871 40.288C26.9516 40.288 26.7646 40.3565 26.6261 40.4936C26.4903 40.628 26.4224 40.8148 26.4224 41.054V42.1668H26.1274V40.0461H26.41V40.4372C26.4903 40.3082 26.6011 40.2087 26.7424 40.1388C26.8865 40.0663 27.0527 40.03 27.2411 40.03Z" fill="white"/>
<path d="M28.9399 40.0461H29.2349V42.1668H28.9399V40.0461ZM29.0895 39.5825C29.0285 39.5825 28.9773 39.5623 28.9357 39.522C28.8942 39.4817 28.8734 39.4333 28.8734 39.3768C28.8734 39.3231 28.8942 39.2761 28.9357 39.2357C28.9773 39.1954 29.0285 39.1753 29.0895 39.1753C29.1504 39.1753 29.2017 39.1954 29.2433 39.2357C29.2848 39.2734 29.3056 39.3191 29.3056 39.3728C29.3056 39.4319 29.2848 39.4817 29.2433 39.522C29.2017 39.5623 29.1504 39.5825 29.0895 39.5825Z" fill="white"/>
<path d="M31.2071 42.0378C31.1517 42.0861 31.0825 42.1238 30.9993 42.1506C30.919 42.1748 30.8345 42.1869 30.7458 42.1869C30.5408 42.1869 30.3829 42.1332 30.2721 42.0257C30.1612 41.9181 30.1058 41.7663 30.1058 41.5701V40.288H29.7152V40.0461H30.1058V39.5825H30.4009V40.0461H31.0658V40.288H30.4009V41.554C30.4009 41.6803 30.4328 41.777 30.4965 41.8442C30.563 41.9087 30.6572 41.941 30.7791 41.941C30.84 41.941 30.8982 41.9316 30.9536 41.9128C31.0118 41.894 31.0617 41.8671 31.1032 41.8321L31.2071 42.0378Z" fill="white"/>
<path d="M32.5607 42.1869C32.3501 42.1869 32.1603 42.1412 31.9913 42.0499C31.8223 41.9558 31.6893 41.8268 31.5924 41.6628C31.4954 41.4989 31.4469 41.3134 31.4469 41.1064C31.4469 40.8995 31.4954 40.714 31.5924 40.5501C31.6893 40.3861 31.8223 40.2584 31.9913 40.1671C32.1603 40.0757 32.3501 40.03 32.5607 40.03C32.7713 40.03 32.961 40.0757 33.13 40.1671C33.2991 40.2584 33.4307 40.3861 33.5249 40.5501C33.6218 40.714 33.6703 40.8995 33.6703 41.1064C33.6703 41.3134 33.6218 41.4989 33.5249 41.6628C33.4307 41.8268 33.2991 41.9558 33.13 42.0499C32.961 42.1412 32.7713 42.1869 32.5607 42.1869ZM32.5607 41.9329C32.7158 41.9329 32.8544 41.8993 32.9763 41.8321C33.101 41.7623 33.1979 41.6642 33.2672 41.5378C33.3365 41.4115 33.3711 41.2677 33.3711 41.1064C33.3711 40.9452 33.3365 40.8014 33.2672 40.675C33.1979 40.5487 33.101 40.452 32.9763 40.3848C32.8544 40.3149 32.7158 40.2799 32.5607 40.2799C32.4055 40.2799 32.2656 40.3149 32.1409 40.3848C32.019 40.452 31.9221 40.5487 31.85 40.675C31.7808 40.8014 31.7461 40.9452 31.7461 41.1064C31.7461 41.2677 31.7808 41.4115 31.85 41.5378C31.9221 41.6642 32.019 41.7623 32.1409 41.8321C32.2656 41.8993 32.4055 41.9329 32.5607 41.9329Z" fill="white"/>
<path d="M34.5553 40.4614C34.6246 40.3189 34.7271 40.2114 34.8629 40.1388C35.0014 40.0663 35.1718 40.03 35.374 40.03V40.3082L35.3034 40.3041C35.0734 40.3041 34.8933 40.3727 34.7631 40.5097C34.6329 40.6468 34.5678 40.839 34.5678 41.0863V42.1668H34.2727V40.0461H34.5553V40.4614Z" fill="white"/>
<path d="M35.9083 40.0461H36.2034V42.1668H35.9083V40.0461ZM36.0579 39.5825C35.9969 39.5825 35.9457 39.5623 35.9041 39.522C35.8626 39.4817 35.8418 39.4333 35.8418 39.3768C35.8418 39.3231 35.8626 39.2761 35.9041 39.2357C35.9457 39.1954 35.9969 39.1753 36.0579 39.1753C36.1188 39.1753 36.1701 39.1954 36.2117 39.2357C36.2532 39.2734 36.274 39.3191 36.274 39.3728C36.274 39.4319 36.2532 39.4817 36.2117 39.522C36.1701 39.5623 36.1188 39.5825 36.0579 39.5825Z" fill="white"/>
<path d="M38.1381 40.03C38.4124 40.03 38.6299 40.1079 38.7906 40.2638C38.9541 40.417 39.0358 40.6415 39.0358 40.9371V42.1668H38.7407V40.9653C38.7407 40.7449 38.6839 40.5769 38.5704 40.4614C38.4568 40.3458 38.2947 40.288 38.0841 40.288C37.8486 40.288 37.6616 40.3565 37.5231 40.4936C37.3873 40.628 37.3194 40.8148 37.3194 41.054V42.1668H37.0244V40.0461H37.307V40.4372C37.3873 40.3082 37.4981 40.2087 37.6394 40.1388C37.7835 40.0663 37.9497 40.03 38.1381 40.03Z" fill="white"/>
<path d="M41.8689 40.0461V41.9087C41.8689 42.2689 41.7775 42.535 41.5946 42.707C41.4145 42.8817 41.1416 42.9691 40.7759 42.9691C40.5737 42.9691 40.3811 42.9395 40.1983 42.8804C40.0182 42.8239 39.8713 42.7446 39.7577 42.6425L39.9073 42.4248C40.0126 42.5162 40.1401 42.5874 40.2897 42.6385C40.4421 42.6895 40.6014 42.7151 40.7676 42.7151C41.0447 42.7151 41.2483 42.6519 41.3785 42.5256C41.5087 42.402 41.5738 42.2084 41.5738 41.945V41.6749C41.4824 41.8093 41.3619 41.9114 41.2123 41.9813C41.0654 42.0512 40.902 42.0861 40.7219 42.0861C40.5169 42.0861 40.3299 42.0431 40.1609 41.9571C39.9946 41.8684 39.863 41.7461 39.766 41.5902C39.6718 41.4317 39.6247 41.2529 39.6247 41.054C39.6247 40.8551 39.6718 40.6777 39.766 40.5218C39.863 40.366 39.9946 40.245 40.1609 40.159C40.3271 40.073 40.5141 40.03 40.7219 40.03C40.9075 40.03 41.0751 40.0663 41.2248 40.1388C41.3744 40.2114 41.4949 40.3162 41.5863 40.4533V40.0461H41.8689ZM40.751 41.8321C40.9089 41.8321 41.0516 41.7999 41.179 41.7354C41.3065 41.6682 41.4048 41.5755 41.4741 41.4572C41.5461 41.3389 41.5822 41.2045 41.5822 41.054C41.5822 40.9035 41.5461 40.7705 41.4741 40.6549C41.4048 40.5366 41.3065 40.4452 41.179 40.3807C41.0544 40.3135 40.9117 40.2799 40.751 40.2799C40.5931 40.2799 40.4504 40.3122 40.3229 40.3767C40.1983 40.4412 40.0999 40.5326 40.0279 40.6509C39.9586 40.7691 39.924 40.9035 39.924 41.054C39.924 41.2045 39.9586 41.3389 40.0279 41.4572C40.0999 41.5755 40.1983 41.6682 40.3229 41.7354C40.4504 41.7999 40.5931 41.8321 40.751 41.8321Z" fill="white"/>
<path d="M44.5464 40.03C44.8318 40.03 45.0507 40.0999 45.203 40.2396C45.3554 40.3767 45.4316 40.581 45.4316 40.8524V42.1668H45.149V41.8362C45.0825 41.9464 44.9842 42.0324 44.8539 42.0942C44.7265 42.156 44.5741 42.1869 44.3968 42.1869C44.153 42.1869 43.959 42.1305 43.815 42.0176C43.6709 41.9047 43.5989 41.7555 43.5989 41.5701C43.5989 41.39 43.6654 41.2449 43.7983 41.1347C43.9341 41.0245 44.1488 40.9694 44.4425 40.9694H45.1365V40.8403C45.1365 40.6576 45.0839 40.5192 44.9786 40.4251C44.8733 40.3283 44.7196 40.2799 44.5173 40.2799C44.3788 40.2799 44.2458 40.3028 44.1184 40.3485C43.9909 40.3915 43.8815 40.452 43.79 40.5299L43.6571 40.3162C43.7679 40.2248 43.9009 40.155 44.056 40.1066C44.2112 40.0555 44.3746 40.03 44.5464 40.03ZM44.4425 41.9612C44.6087 41.9612 44.7514 41.9249 44.8706 41.8523C44.9897 41.777 45.0784 41.6695 45.1365 41.5298V41.183H44.4508C44.0768 41.183 43.8898 41.3094 43.8898 41.562C43.8898 41.6857 43.9383 41.7838 44.0352 41.8563C44.1322 41.9262 44.268 41.9612 44.4425 41.9612Z" fill="white"/>
<path d="M47.3468 40.03C47.6211 40.03 47.8386 40.1079 47.9993 40.2638C48.1628 40.417 48.2445 40.6415 48.2445 40.9371V42.1668H47.9494V40.9653C47.9494 40.7449 47.8926 40.5769 47.779 40.4614C47.6654 40.3458 47.5034 40.288 47.2928 40.288C47.0573 40.288 46.8703 40.3565 46.7318 40.4936C46.596 40.628 46.5281 40.8148 46.5281 41.054V42.1668H46.233V40.0461H46.5156V40.4372C46.596 40.3082 46.7068 40.2087 46.8481 40.1388C46.9922 40.0663 47.1584 40.03 47.3468 40.03Z" fill="white"/>
<path d="M51.0485 39.1753V42.1668H50.7659V41.7475C50.6772 41.8899 50.5595 41.9988 50.4127 42.074C50.2686 42.1493 50.1051 42.1869 49.9223 42.1869C49.7172 42.1869 49.5316 42.1412 49.3654 42.0499C49.1991 41.9585 49.0689 41.8308 48.9747 41.6668C48.8805 41.5029 48.8334 41.3161 48.8334 41.1064C48.8334 40.8968 48.8805 40.71 48.9747 40.546C49.0689 40.3821 49.1991 40.2558 49.3654 40.1671C49.5316 40.0757 49.7172 40.03 49.9223 40.03C50.0996 40.03 50.2589 40.0663 50.4002 40.1388C50.5443 40.2087 50.662 40.3122 50.7534 40.4493V39.1753H51.0485ZM49.9472 41.9329C50.0996 41.9329 50.2367 41.8993 50.3586 41.8321C50.4833 41.7623 50.5803 41.6642 50.6495 41.5378C50.7216 41.4115 50.7576 41.2677 50.7576 41.1064C50.7576 40.9452 50.7216 40.8014 50.6495 40.675C50.5803 40.5487 50.4833 40.452 50.3586 40.3848C50.2367 40.3149 50.0996 40.2799 49.9472 40.2799C49.792 40.2799 49.6521 40.3149 49.5275 40.3848C49.4055 40.452 49.3086 40.5487 49.2365 40.675C49.1673 40.8014 49.1326 40.9452 49.1326 41.1064C49.1326 41.2677 49.1673 41.4115 49.2365 41.5378C49.3086 41.6642 49.4055 41.7623 49.5275 41.8321C49.6521 41.8993 49.792 41.9329 49.9472 41.9329Z" fill="white"/>
<path d="M53.7226 40.03C54.008 40.03 54.2269 40.0999 54.3792 40.2396C54.5316 40.3767 54.6078 40.581 54.6078 40.8524V42.1668H54.3252V41.8362C54.2587 41.9464 54.1604 42.0324 54.0302 42.0942C53.9027 42.156 53.7503 42.1869 53.573 42.1869C53.3292 42.1869 53.1353 42.1305 52.9912 42.0176C52.8471 41.9047 52.7751 41.7555 52.7751 41.5701C52.7751 41.39 52.8416 41.2449 52.9746 41.1347C53.1103 41.0245 53.325 40.9694 53.6187 40.9694H54.3128V40.8403C54.3128 40.6576 54.2601 40.5192 54.1548 40.4251C54.0495 40.3283 53.8958 40.2799 53.6935 40.2799C53.555 40.2799 53.422 40.3028 53.2946 40.3485C53.1671 40.3915 53.0577 40.452 52.9663 40.5299L52.8333 40.3162C52.9441 40.2248 53.0771 40.155 53.2322 40.1066C53.3874 40.0555 53.5508 40.03 53.7226 40.03ZM53.6187 41.9612C53.785 41.9612 53.9276 41.9249 54.0468 41.8523C54.1659 41.777 54.2546 41.6695 54.3128 41.5298V41.183H53.627C53.253 41.183 53.066 41.3094 53.066 41.562C53.066 41.6857 53.1145 41.7838 53.2114 41.8563C53.3084 41.9262 53.4442 41.9612 53.6187 41.9612Z" fill="white"/>
<path d="M56.523 40.03C56.7973 40.03 57.0148 40.1079 57.1755 40.2638C57.339 40.417 57.4207 40.6415 57.4207 40.9371V42.1668H57.1256V40.9653C57.1256 40.7449 57.0688 40.5769 56.9552 40.4614C56.8416 40.3458 56.6796 40.288 56.469 40.288C56.2335 40.288 56.0465 40.3565 55.908 40.4936C55.7722 40.628 55.7043 40.8148 55.7043 41.054V42.1668H55.4093V40.0461H55.6919V40.4372C55.7722 40.3082 55.883 40.2087 56.0243 40.1388C56.1684 40.0663 56.3346 40.03 56.523 40.03Z" fill="white"/>
<path d="M58.9865 40.03C59.2718 40.03 59.4907 40.0999 59.6431 40.2396C59.7955 40.3767 59.8717 40.581 59.8717 40.8524V42.1668H59.5891V41.8362C59.5226 41.9464 59.4242 42.0324 59.294 42.0942C59.1665 42.156 59.0142 42.1869 58.8368 42.1869C58.593 42.1869 58.3991 42.1305 58.255 42.0176C58.111 41.9047 58.0389 41.7555 58.0389 41.5701C58.0389 41.39 58.1054 41.2449 58.2384 41.1347C58.3742 41.0245 58.5889 40.9694 58.8826 40.9694H59.5766V40.8403C59.5766 40.6576 59.524 40.5192 59.4187 40.4251C59.3134 40.3283 59.1596 40.2799 58.9574 40.2799C58.8188 40.2799 58.6859 40.3028 58.5584 40.3485C58.431 40.3915 58.3215 40.452 58.2301 40.5299L58.0971 40.3162C58.2079 40.2248 58.3409 40.155 58.4961 40.1066C58.6512 40.0555 58.8147 40.03 58.9865 40.03ZM58.8826 41.9612C59.0488 41.9612 59.1915 41.9249 59.3106 41.8523C59.4298 41.777 59.5184 41.6695 59.5766 41.5298V41.183H58.8909C58.5168 41.183 58.3298 41.3094 58.3298 41.562C58.3298 41.6857 58.3783 41.7838 58.4753 41.8563C58.5723 41.9262 58.708 41.9612 58.8826 41.9612Z" fill="white"/>
<path d="M60.6731 39.1753H60.9682V42.1668H60.6731V39.1753Z" fill="white"/>
<path d="M63.6261 40.0461L62.5331 42.4208C62.4444 42.6197 62.3419 42.7608 62.2255 42.8441C62.1092 42.9274 61.9693 42.9691 61.8058 42.9691C61.7005 42.9691 61.6022 42.9529 61.5107 42.9207C61.4193 42.8884 61.3403 42.8401 61.2738 42.7756L61.411 42.5619C61.5218 42.6694 61.6548 42.7231 61.81 42.7231C61.9097 42.7231 61.9942 42.6963 62.0635 42.6425C62.1355 42.5888 62.202 42.4974 62.2629 42.3684L62.3585 42.1627L61.3819 40.0461H61.6894L62.5123 41.8483L63.3352 40.0461H63.6261Z" fill="white"/>
<path d="M65.2537 42.0378C65.1983 42.0861 65.129 42.1238 65.0459 42.1506C64.9655 42.1748 64.881 42.1869 64.7924 42.1869C64.5874 42.1869 64.4294 42.1332 64.3186 42.0257C64.2078 41.9181 64.1524 41.7663 64.1524 41.5701V40.288H63.7617V40.0461H64.1524V39.5825H64.4474V40.0461H65.1124V40.288H64.4474V41.554C64.4474 41.6803 64.4793 41.777 64.543 41.8442C64.6095 41.9087 64.7037 41.941 64.8256 41.941C64.8866 41.941 64.9448 41.9316 65.0002 41.9128C65.0584 41.894 65.1082 41.8671 65.1498 41.8321L65.2537 42.0378Z" fill="white"/>
<path d="M65.7908 40.0461H66.0859V42.1668H65.7908V40.0461ZM65.9404 39.5825C65.8795 39.5825 65.8282 39.5623 65.7867 39.522C65.7451 39.4817 65.7243 39.4333 65.7243 39.3768C65.7243 39.3231 65.7451 39.2761 65.7867 39.2357C65.8282 39.1954 65.8795 39.1753 65.9404 39.1753C66.0014 39.1753 66.0527 39.1954 66.0942 39.2357C66.1358 39.2734 66.1566 39.3191 66.1566 39.3728C66.1566 39.4319 66.1358 39.4817 66.0942 39.522C66.0527 39.5623 66.0014 39.5825 65.9404 39.5825Z" fill="white"/>
<path d="M67.8129 42.1869C67.5968 42.1869 67.4029 42.1412 67.2311 42.0499C67.0621 41.9585 66.9291 41.8308 66.8321 41.6668C66.7351 41.5002 66.6867 41.3134 66.6867 41.1064C66.6867 40.8995 66.7351 40.714 66.8321 40.5501C66.9291 40.3861 67.0621 40.2584 67.2311 40.1671C67.4029 40.0757 67.5968 40.03 67.8129 40.03C68.0013 40.03 68.1689 40.0663 68.3158 40.1388C68.4654 40.2087 68.5831 40.3122 68.669 40.4493L68.4487 40.5944C68.3767 40.4896 68.2853 40.4116 68.1745 40.3606C68.0636 40.3068 67.9431 40.2799 67.8129 40.2799C67.655 40.2799 67.5123 40.3149 67.3848 40.3848C67.2602 40.452 67.1618 40.5487 67.0898 40.675C67.0205 40.8014 66.9859 40.9452 66.9859 41.1064C66.9859 41.2704 67.0205 41.4155 67.0898 41.5419C67.1618 41.6655 67.2602 41.7623 67.3848 41.8321C67.5123 41.8993 67.655 41.9329 67.8129 41.9329C67.9431 41.9329 68.0636 41.9074 68.1745 41.8563C68.2853 41.8053 68.3767 41.7273 68.4487 41.6225L68.669 41.7676C68.5831 41.9047 68.4654 42.0095 68.3158 42.0821C68.1661 42.152 67.9985 42.1869 67.8129 42.1869Z" fill="white"/>
<path d="M69.8346 42.1869C69.6573 42.1869 69.4869 42.1627 69.3235 42.1144C69.1628 42.0633 69.0367 42.0001 68.9453 41.9249L69.0783 41.6991C69.1697 41.769 69.2847 41.8268 69.4232 41.8725C69.5617 41.9155 69.7058 41.937 69.8554 41.937C70.0549 41.937 70.2017 41.9074 70.2959 41.8483C70.3929 41.7864 70.4414 41.7004 70.4414 41.5902C70.4414 41.5123 70.4151 41.4518 70.3624 41.4088C70.3098 41.3631 70.2433 41.3295 70.1629 41.308C70.0826 41.2838 69.9759 41.261 69.8429 41.2395C69.6656 41.2072 69.5229 41.175 69.4149 41.1427C69.3068 41.1078 69.214 41.05 69.1364 40.9694C69.0616 40.8887 69.0242 40.7772 69.0242 40.6347C69.0242 40.4573 69.1004 40.3122 69.2528 40.1993C69.4052 40.0864 69.6171 40.03 69.8887 40.03C70.03 40.03 70.1713 40.0488 70.3126 40.0864C70.4539 40.1214 70.5702 40.1684 70.6617 40.2275L70.5328 40.4573C70.3527 40.3364 70.138 40.2759 69.8887 40.2759C69.7003 40.2759 69.5576 40.3082 69.4606 40.3727C69.3664 40.4372 69.3193 40.5218 69.3193 40.6267C69.3193 40.7073 69.3456 40.7718 69.3983 40.8202C69.4537 40.8686 69.5216 40.9049 69.6019 40.929C69.6823 40.9505 69.7931 40.9734 69.9344 40.9976C70.1089 41.0298 70.2488 41.0621 70.3541 41.0943C70.4594 41.1266 70.5494 41.1817 70.6243 41.2596C70.6991 41.3376 70.7365 41.4451 70.7365 41.5822C70.7365 41.7676 70.6561 41.9155 70.4954 42.0257C70.3375 42.1332 70.1172 42.1869 69.8346 42.1869Z" fill="white"/>
<path d="M72.9556 42.1869C72.7783 42.1869 72.6079 42.1627 72.4444 42.1144C72.2837 42.0633 72.1577 42.0001 72.0662 41.9249L72.1992 41.6991C72.2907 41.769 72.4056 41.8268 72.5442 41.8725C72.6827 41.9155 72.8268 41.937 72.9764 41.937C73.1759 41.937 73.3227 41.9074 73.4169 41.8483C73.5139 41.7864 73.5624 41.7004 73.5624 41.5902C73.5624 41.5123 73.536 41.4518 73.4834 41.4088C73.4308 41.3631 73.3643 41.3295 73.2839 41.308C73.2036 41.2838 73.0969 41.261 72.9639 41.2395C72.7866 41.2072 72.6439 41.175 72.5359 41.1427C72.4278 41.1078 72.335 41.05 72.2574 40.9694C72.1826 40.8887 72.1452 40.7772 72.1452 40.6347C72.1452 40.4573 72.2214 40.3122 72.3738 40.1993C72.5262 40.0864 72.7381 40.03 73.0096 40.03C73.1509 40.03 73.2922 40.0488 73.4335 40.0864C73.5748 40.1214 73.6912 40.1684 73.7826 40.2275L73.6538 40.4573C73.4737 40.3364 73.259 40.2759 73.0096 40.2759C72.8212 40.2759 72.6785 40.3082 72.5816 40.3727C72.4874 40.4372 72.4403 40.5218 72.4403 40.6267C72.4403 40.7073 72.4666 40.7718 72.5192 40.8202C72.5746 40.8686 72.6425 40.9049 72.7229 40.929C72.8032 40.9505 72.914 40.9734 73.0553 40.9976C73.2299 41.0298 73.3698 41.0621 73.4751 41.0943C73.5804 41.1266 73.6704 41.1817 73.7452 41.2596C73.82 41.3376 73.8574 41.4451 73.8574 41.5822C73.8574 41.7676 73.7771 41.9155 73.6164 42.0257C73.4585 42.1332 73.2382 42.1869 72.9556 42.1869Z" fill="white"/>
<path d="M76.1992 40.0461L75.1062 42.4208C75.0176 42.6197 74.9151 42.7608 74.7987 42.8441C74.6823 42.9274 74.5424 42.9691 74.379 42.9691C74.2737 42.9691 74.1753 42.9529 74.0839 42.9207C73.9925 42.8884 73.9135 42.8401 73.847 42.7756L73.9841 42.5619C74.095 42.6694 74.228 42.7231 74.3831 42.7231C74.4828 42.7231 74.5674 42.6963 74.6366 42.6425C74.7087 42.5888 74.7751 42.4974 74.8361 42.3684L74.9317 42.1627L73.9551 40.0461H74.2626L75.0855 41.8483L75.9083 40.0461H76.1992Z" fill="white"/>
<path d="M77.1764 42.1869C76.9991 42.1869 76.8287 42.1627 76.6652 42.1144C76.5045 42.0633 76.3785 42.0001 76.2871 41.9249L76.42 41.6991C76.5115 41.769 76.6265 41.8268 76.765 41.8725C76.9035 41.9155 77.0476 41.937 77.1972 41.937C77.3967 41.937 77.5435 41.9074 77.6377 41.8483C77.7347 41.7864 77.7832 41.7004 77.7832 41.5902C77.7832 41.5123 77.7569 41.4518 77.7042 41.4088C77.6516 41.3631 77.5851 41.3295 77.5047 41.308C77.4244 41.2838 77.3177 41.261 77.1847 41.2395C77.0074 41.2072 76.8647 41.175 76.7567 41.1427C76.6486 41.1078 76.5558 41.05 76.4782 40.9694C76.4034 40.8887 76.366 40.7772 76.366 40.6347C76.366 40.4573 76.4422 40.3122 76.5946 40.1993C76.747 40.0864 76.9589 40.03 77.2304 40.03C77.3717 40.03 77.513 40.0488 77.6543 40.0864C77.7956 40.1214 77.912 40.1684 78.0034 40.2275L77.8746 40.4573C77.6945 40.3364 77.4798 40.2759 77.2304 40.2759C77.042 40.2759 76.8994 40.3082 76.8024 40.3727C76.7082 40.4372 76.6611 40.5218 76.6611 40.6267C76.6611 40.7073 76.6874 40.7718 76.7401 40.8202C76.7955 40.8686 76.8633 40.9049 76.9437 40.929C77.024 40.9505 77.1349 40.9734 77.2762 40.9976C77.4507 41.0298 77.5906 41.0621 77.6959 41.0943C77.8012 41.1266 77.8912 41.1817 77.966 41.2596C78.0408 41.3376 78.0782 41.4451 78.0782 41.5822C78.0782 41.7676 77.9979 41.9155 77.8372 42.0257C77.6793 42.1332 77.459 42.1869 77.1764 42.1869Z" fill="white"/>
<path d="M79.7749 42.0378C79.7195 42.0861 79.6502 42.1238 79.5671 42.1506C79.4868 42.1748 79.4023 42.1869 79.3136 42.1869C79.1086 42.1869 78.9507 42.1332 78.8398 42.0257C78.729 41.9181 78.6736 41.7663 78.6736 41.5701V40.288H78.283V40.0461H78.6736V39.5825H78.9687V40.0461H79.6336V40.288H78.9687V41.554C78.9687 41.6803 79.0005 41.777 79.0643 41.8442C79.1308 41.9087 79.2249 41.941 79.3469 41.941C79.4078 41.941 79.466 41.9316 79.5214 41.9128C79.5796 41.894 79.6295 41.8671 79.671 41.8321L79.7749 42.0378Z" fill="white"/>
<path d="M82.1383 41.1951H80.3098C80.3264 41.4155 80.4137 41.5943 80.5716 41.7313C80.7295 41.8657 80.929 41.9329 81.17 41.9329C81.3058 41.9329 81.4305 41.9101 81.544 41.8644C81.6576 41.816 81.756 41.7461 81.8391 41.6547L82.0053 41.8402C81.9084 41.9531 81.7865 42.0391 81.6396 42.0982C81.4956 42.1574 81.3363 42.1869 81.1617 42.1869C80.9373 42.1869 80.7378 42.1412 80.5633 42.0499C80.3915 41.9558 80.2571 41.8268 80.1601 41.6628C80.0632 41.4989 80.0147 41.3134 80.0147 41.1064C80.0147 40.8995 80.0604 40.714 80.1518 40.5501C80.246 40.3861 80.3735 40.2584 80.5342 40.1671C80.6976 40.0757 80.8805 40.03 81.0827 40.03C81.285 40.03 81.4665 40.0757 81.6272 40.1671C81.7879 40.2584 81.9139 40.3861 82.0053 40.5501C82.0968 40.7113 82.1425 40.8968 82.1425 41.1064L82.1383 41.1951ZM81.0827 40.2759C80.8722 40.2759 80.6949 40.3418 80.5508 40.4735C80.4095 40.6025 80.3291 40.7718 80.3098 40.9815H81.8599C81.8405 40.7718 81.7588 40.6025 81.6147 40.4735C81.4734 40.3418 81.2961 40.2759 81.0827 40.2759Z" fill="white"/>
<path d="M85.4693 40.03C85.7436 40.03 85.9584 40.1066 86.1135 40.2598C86.2714 40.413 86.3504 40.6388 86.3504 40.9371V42.1668H86.0553V40.9653C86.0553 40.7449 85.9999 40.5769 85.8891 40.4614C85.781 40.3458 85.6273 40.288 85.4278 40.288C85.2006 40.288 85.0219 40.3565 84.8917 40.4936C84.7615 40.628 84.6964 40.8148 84.6964 41.054V42.1668H84.4013V40.9653C84.4013 40.7449 84.3459 40.5769 84.235 40.4614C84.127 40.3458 83.9718 40.288 83.7696 40.288C83.5452 40.288 83.3665 40.3565 83.2335 40.4936C83.1033 40.628 83.0381 40.8148 83.0381 41.054V42.1668H82.7431V40.0461H83.0257V40.4331C83.1033 40.3041 83.2113 40.2047 83.3498 40.1348C83.4884 40.0649 83.6477 40.03 83.8278 40.03C84.0106 40.03 84.1685 40.0676 84.3015 40.1429C84.4373 40.2181 84.5384 40.3297 84.6049 40.4775C84.6853 40.3377 84.8002 40.2289 84.9499 40.1509C85.1022 40.0703 85.2754 40.03 85.4693 40.03Z" fill="white"/>
<path d="M19.8362 5.90188C14.8286 6.64099 10.7263 9.18148 8.50158 11.2792L7.47266 10.2025C9.8837 7.92913 14.2588 5.22426 19.6166 4.43347C25.009 3.63757 31.3562 4.78891 37.6197 10.1799L36.641 11.3018C30.7159 6.20211 24.8093 5.16788 19.8362 5.90188Z" fill="#00BCEA"/>
<path d="M20.7096 12.2492C17.3675 12.745 14.6537 14.4507 13.1982 15.8513L12.1583 14.7851C13.8026 13.2028 16.7929 11.3292 20.4889 10.781C24.2193 10.2276 28.6233 11.0332 33.0076 14.7538L32.0369 15.8825C27.9855 12.4444 24.0173 11.7586 20.7096 12.2492Z" fill="#00BCEA"/>
<path d="M17.681 20.3469C18.3895 19.6673 19.7658 18.815 21.5152 18.5675C23.2357 18.324 25.3576 18.6586 27.6228 20.4L28.5376 19.226C25.9538 17.2397 23.4261 16.7976 21.3044 17.0978C19.2117 17.3939 17.5533 18.4055 16.6427 19.2791L17.681 20.3469Z" fill="#00BCEA"/>
</svg>
