<svg width="96" height="96" viewBox="0 0 96 96" fill="none" xmlns="http://www.w3.org/2000/svg">
<rect x="0.5" y="0.5" width="95" height="95" rx="47.5" fill="#EFF8FF" stroke="#E7E7E7"/>
<path d="M24.18 52.78H28.78V55H21.38V41.04H24.18V52.78ZM37.0397 55.14C35.733 55.14 34.533 54.8333 33.4397 54.22C32.3464 53.6067 31.4797 52.76 30.8397 51.68C30.1997 50.5867 29.8797 49.3533 29.8797 47.98C29.8797 46.62 30.1997 45.4 30.8397 44.32C31.4797 43.2267 32.3464 42.3733 33.4397 41.76C34.533 41.1467 35.733 40.84 37.0397 40.84C38.3597 40.84 39.5597 41.1467 40.6397 41.76C41.733 42.3733 42.593 43.2267 43.2197 44.32C43.8597 45.4 44.1797 46.62 44.1797 47.98C44.1797 49.3533 43.8597 50.5867 43.2197 51.68C42.593 52.76 41.733 53.6067 40.6397 54.22C39.5464 54.8333 38.3464 55.14 37.0397 55.14ZM37.0397 52.64C37.8797 52.64 38.6197 52.4533 39.2597 52.08C39.8997 51.6933 40.3997 51.1467 40.7597 50.44C41.1197 49.7333 41.2997 48.9133 41.2997 47.98C41.2997 47.0467 41.1197 46.2333 40.7597 45.54C40.3997 44.8333 39.8997 44.2933 39.2597 43.92C38.6197 43.5467 37.8797 43.36 37.0397 43.36C36.1997 43.36 35.453 43.5467 34.7997 43.92C34.1597 44.2933 33.6597 44.8333 33.2997 45.54C32.9397 46.2333 32.7597 47.0467 32.7597 47.98C32.7597 48.9133 32.9397 49.7333 33.2997 50.44C33.6597 51.1467 34.1597 51.6933 34.7997 52.08C35.453 52.4533 36.1997 52.64 37.0397 52.64ZM55.9828 45.24C55.6628 44.6533 55.2228 44.2067 54.6628 43.9C54.1028 43.5933 53.4495 43.44 52.7028 43.44C51.8761 43.44 51.1428 43.6267 50.5028 44C49.8628 44.3733 49.3628 44.9067 49.0028 45.6C48.6428 46.2933 48.4628 47.0933 48.4628 48C48.4628 48.9333 48.6428 49.7467 49.0028 50.44C49.3761 51.1333 49.8895 51.6667 50.5428 52.04C51.1961 52.4133 51.9561 52.6 52.8228 52.6C53.8895 52.6 54.7628 52.32 55.4428 51.76C56.1228 51.1867 56.5695 50.3933 56.7828 49.38H51.9828V47.24H59.5428V49.68C59.3561 50.6533 58.9561 51.5533 58.3428 52.38C57.7295 53.2067 56.9361 53.8733 55.9628 54.38C55.0028 54.8733 53.9228 55.12 52.7228 55.12C51.3761 55.12 50.1561 54.82 49.0628 54.22C47.9828 53.6067 47.1295 52.76 46.5028 51.68C45.8895 50.6 45.5828 49.3733 45.5828 48C45.5828 46.6267 45.8895 45.4 46.5028 44.32C47.1295 43.2267 47.9828 42.38 49.0628 41.78C50.1561 41.1667 51.3695 40.86 52.7028 40.86C54.2761 40.86 55.6428 41.2467 56.8028 42.02C57.9628 42.78 58.7628 43.8533 59.2028 45.24H55.9828ZM68.0944 55.14C66.7877 55.14 65.5877 54.8333 64.4944 54.22C63.401 53.6067 62.5344 52.76 61.8944 51.68C61.2544 50.5867 60.9344 49.3533 60.9344 47.98C60.9344 46.62 61.2544 45.4 61.8944 44.32C62.5344 43.2267 63.401 42.3733 64.4944 41.76C65.5877 41.1467 66.7877 40.84 68.0944 40.84C69.4144 40.84 70.6144 41.1467 71.6944 41.76C72.7877 42.3733 73.6477 43.2267 74.2744 44.32C74.9144 45.4 75.2344 46.62 75.2344 47.98C75.2344 49.3533 74.9144 50.5867 74.2744 51.68C73.6477 52.76 72.7877 53.6067 71.6944 54.22C70.601 54.8333 69.401 55.14 68.0944 55.14ZM68.0944 52.64C68.9344 52.64 69.6744 52.4533 70.3144 52.08C70.9544 51.6933 71.4544 51.1467 71.8144 50.44C72.1744 49.7333 72.3544 48.9133 72.3544 47.98C72.3544 47.0467 72.1744 46.2333 71.8144 45.54C71.4544 44.8333 70.9544 44.2933 70.3144 43.92C69.6744 43.5467 68.9344 43.36 68.0944 43.36C67.2544 43.36 66.5077 43.5467 65.8544 43.92C65.2144 44.2933 64.7144 44.8333 64.3544 45.54C63.9944 46.2333 63.8144 47.0467 63.8144 47.98C63.8144 48.9133 63.9944 49.7333 64.3544 50.44C64.7144 51.1467 65.2144 51.6933 65.8544 52.08C66.5077 52.4533 67.2544 52.64 68.0944 52.64Z" fill="#197DD9"/>
</svg>
