<svg width="142" height="74" viewBox="0 0 142 74" fill="none" xmlns="http://www.w3.org/2000/svg">
<path fill-rule="evenodd" clip-rule="evenodd" d="M14.5706 33.6213C11.7809 34.1332 9.38863 35.6889 7.90453 37.9563C6.80496 39.6362 6.3197 41.5688 6.43432 43.8125C6.55873 46.2496 7.40859 48.228 9.08772 49.9894C12.7508 53.8317 19.5637 54.051 23.4305 50.4514L23.9578 49.9604L23.0709 49.077L22.184 48.1937L21.5371 48.7529C20.17 49.9349 18.6811 50.4664 16.737 50.4664C15.1851 50.4664 14.4208 50.3003 13.0912 49.6744C11.2726 48.8181 9.92111 47.2201 9.34926 45.25C9.124 44.4735 9.12233 42.0434 9.34669 41.2481C10.225 38.1334 13.1658 35.9864 16.5647 35.9782C18.513 35.9735 20.0372 36.4947 21.3958 37.63L22.1514 38.2616L22.8546 37.5933C23.2414 37.2258 23.6343 36.8577 23.7278 36.7752C23.9983 36.5368 23.9376 36.4182 23.2438 35.8282C20.9308 33.8617 17.717 33.0439 14.5706 33.6213ZM33.4821 33.6085C31.2284 34.0451 29.6147 34.8662 28.0426 36.3765C25.7427 38.5855 24.7493 41.9669 25.4361 45.2473C26.1959 48.8764 28.7296 51.541 32.4684 52.643C33.7493 53.0205 36.1306 53.1073 37.5279 52.8276C41.8338 51.9653 44.9106 48.8549 45.5178 44.7503C46.1658 40.3704 43.9189 36.187 39.9567 34.3958C38.1678 33.587 35.3569 33.2452 33.4821 33.6085ZM126.728 33.6174C124.384 34.0376 122.745 35.1391 121.968 36.8155C121.117 38.6529 121.45 40.9474 122.747 42.1822C123.743 43.1304 125.131 43.7221 128.168 44.4932C130.36 45.0496 131.2 45.3365 131.875 45.7597C132.914 46.4114 133.27 47.6261 132.751 48.7551C132.449 49.411 131.903 49.8627 130.968 50.2281C130.324 50.4801 129.991 50.5187 128.426 50.5232C126.876 50.5276 126.499 50.4871 125.724 50.2327C124.368 49.7874 123.329 49.262 122.669 48.6881C122.343 48.4044 122.05 48.2164 122.019 48.2704C121.494 49.1669 121.028 50.1025 121.028 50.2601C121.028 50.5032 122.144 51.3945 122.95 51.7954C123.839 52.2371 125.364 52.71 126.47 52.8864C127.684 53.0799 130.185 52.9844 131.219 52.7049C131.956 52.5059 133.034 52.0528 133.359 51.806C134.922 50.6165 135.582 49.4939 135.668 47.8793C135.754 46.2701 135.37 45.2599 134.292 44.2568C133.336 43.3671 132.119 42.8671 128.82 42.0104C125.029 41.0259 124.246 40.4865 124.245 38.859C124.244 37.5116 125.022 36.5941 126.539 36.1526C127.442 35.8897 129.682 35.8599 130.677 36.0974C131.561 36.3086 133.013 36.895 133.5 37.2378C133.703 37.3806 133.924 37.4973 133.991 37.4973C134.195 37.4973 135.033 35.4193 134.898 35.2501C134.712 35.0183 132.751 34.1148 131.963 33.8981C130.226 33.4204 128.379 33.3214 126.728 33.6174ZM46.6687 33.7638C46.6687 33.9731 47.1936 35.5346 51.2336 47.343C52.2607 50.3454 53.1012 52.82 53.1012 52.8421C53.1012 52.8641 53.678 52.8822 54.3832 52.8822C55.4735 52.8822 55.6827 52.8489 55.7828 52.6597C55.8475 52.5373 56.2238 51.4765 56.6191 50.3023C57.0144 49.1283 57.539 47.612 57.7847 46.9329C58.0304 46.254 58.8172 44.0104 59.5333 41.9475C60.2495 39.8845 60.8788 38.153 60.9321 38.0998C60.9853 38.0466 61.1792 38.4471 61.3631 38.9899C61.5468 39.5325 62.2549 41.5787 62.9366 43.5368C63.6183 45.4949 64.5868 48.2985 65.0889 49.767C65.5909 51.2356 66.0547 52.5392 66.1195 52.664C66.2227 52.863 66.397 52.8865 67.534 52.8547L68.8307 52.8186L71.911 43.7911C75.4425 33.442 75.3512 33.7191 75.2572 33.626C75.218 33.5874 74.6477 33.5557 73.9899 33.5557C72.6908 33.5557 72.6644 33.5702 72.3954 34.4316C72.3008 34.7341 68.5182 45.7482 67.8555 47.6499C67.7008 48.094 67.52 48.4553 67.4535 48.4528C67.3431 48.4487 66.6172 46.3986 63.4395 37.1158C62.829 35.3326 62.2706 33.7999 62.1984 33.7099C62.1054 33.5938 61.747 33.557 60.9635 33.5828L59.8597 33.6193L59.4395 34.7636C59.2084 35.393 58.791 36.5659 58.5117 37.3701C58.2325 38.1743 57.7917 39.4331 57.5324 40.1674C56.096 44.2334 55.4992 45.9419 55.1562 46.9698C54.751 48.1837 54.5788 48.5361 54.4524 48.4111C54.4095 48.3688 53.2507 45.0233 51.8773 40.9767L49.3803 33.6193L48.0244 33.5832C46.8183 33.5511 46.6687 33.5711 46.6687 33.7638ZM78.1498 33.6358C78.1 33.685 78.0592 38.0355 78.0592 43.3037V52.8822H79.41H80.7608L80.765 46.1115C80.7687 39.9973 80.7881 39.3656 80.9666 39.5952C81.0753 39.7351 81.485 40.3931 81.8771 41.0574C82.2693 41.7218 82.9822 42.9233 83.4615 43.7275C83.9408 44.5317 84.9264 46.191 85.6518 47.4148C86.3773 48.6386 87.0835 49.8258 87.2212 50.0531C87.4573 50.4427 87.5133 50.4661 88.2009 50.4619L88.9301 50.4575L90.0087 48.5865C90.6019 47.5575 91.2161 46.5152 91.3733 46.2705C91.5306 46.0257 92.1404 44.9958 92.7283 43.9818C94.9908 40.08 95.4987 39.2636 95.6008 39.3644C95.6466 39.4098 95.6842 42.4698 95.6842 46.1646V52.8822H96.9715H98.2589L98.2258 43.2507L98.1929 33.6193L97.228 33.5867C96.6973 33.5687 96.1939 33.5988 96.1094 33.6535C96.0247 33.7081 95.6426 34.2949 95.2602 34.9575C94.8776 35.6201 93.9404 37.2207 93.1775 38.5145C92.4144 39.8082 91.3553 41.6105 90.8237 42.5196C90.292 43.4287 89.6539 44.5158 89.4057 44.9354C89.1574 45.355 88.7972 45.9751 88.6051 46.3135L88.2561 46.9285L88.0069 46.5678C87.8699 46.3693 87.2153 45.2914 86.5523 44.1725C85.8892 43.0536 84.991 41.5374 84.556 40.8031C84.1212 40.0688 83.4092 38.8673 82.974 38.133C82.5388 37.3987 81.7615 36.0828 81.2466 35.2086L80.3106 33.6193L79.2755 33.5828C78.706 33.5627 78.1996 33.5865 78.1498 33.6358ZM109.377 33.653C109.301 33.7043 109.147 33.9753 109.034 34.255C108.922 34.5347 108.571 35.3072 108.254 35.9715C107.937 36.6359 107.23 38.1521 106.682 39.3409C106.133 40.5298 105.524 41.8457 105.326 42.2653C105.128 42.6849 104.535 43.9723 104.006 45.1261C102.888 47.5689 101.867 49.7695 101.035 51.5292C100.71 52.2163 100.444 52.8037 100.444 52.8345C100.444 52.8653 101.094 52.8743 101.889 52.8546L103.333 52.8186L103.88 51.6107C104.18 50.9463 104.689 49.8442 105.009 49.1616L105.591 47.9205L110.562 47.9537L115.533 47.987L116.231 49.5128C116.615 50.3519 117.125 51.4533 117.364 51.9603L117.799 52.8822H119.221C120.003 52.8822 120.642 52.8548 120.642 52.8214C120.642 52.788 120.446 52.3445 120.205 51.836C119.764 50.9026 118.028 47.1535 116.95 44.8083C116.629 44.109 116.032 42.8216 115.624 41.9475C115.216 41.0733 114.291 39.0707 113.569 37.4973C112.846 35.9238 112.163 34.4362 112.049 34.1914C111.936 33.9467 111.782 33.7043 111.708 33.653C111.633 33.6016 111.109 33.5596 110.543 33.5596C109.977 33.5596 109.452 33.6016 109.377 33.653ZM37.4579 36.2226C40.4866 36.9882 42.3941 39.1536 42.8028 42.2902C43.1685 45.0964 42.0381 47.7402 39.8545 49.1855C38.3605 50.1743 37.3369 50.4667 35.3734 50.4656C33.0918 50.4643 31.3863 49.7728 29.8995 48.246C28.392 46.6981 27.7801 44.739 28.0315 42.2653C28.4765 37.8877 32.8794 35.0653 37.4579 36.2226ZM110.888 37.7198C111.034 38.052 111.297 38.6384 111.473 39.0231C113.459 43.3757 114.336 45.4083 114.272 45.5112C114.156 45.6959 106.748 45.677 106.748 45.4918C106.748 45.4132 106.958 44.8839 107.215 44.3157C107.472 43.7475 107.785 43.0536 107.911 42.7739C109.311 39.6632 110.389 37.2888 110.436 37.2112C110.546 37.0308 110.623 37.1174 110.888 37.7198Z" fill="white"/>
<path d="M11.6365 65.0382C11.3016 65.0382 11.0011 64.9678 10.735 64.8269C10.4731 64.686 10.267 64.4892 10.1168 64.2364C9.96654 63.9795 9.89142 63.6915 9.89142 63.3724C9.89142 63.0534 9.96654 62.7675 10.1168 62.5147C10.267 62.2619 10.4731 62.0651 10.735 61.9242C11.0011 61.7833 11.3016 61.7129 11.6365 61.7129C11.9284 61.7129 12.1881 61.7688 12.4156 61.8807C12.6475 61.9884 12.8299 62.148 12.963 62.3593L12.6217 62.5831C12.5101 62.4215 12.3684 62.3013 12.1967 62.2226C12.025 62.1397 11.8382 62.0983 11.6365 62.0983C11.3918 62.0983 11.1707 62.1521 10.9732 62.2599C10.78 62.3634 10.6276 62.5126 10.516 62.7074C10.4087 62.9021 10.3551 63.1238 10.3551 63.3724C10.3551 63.6252 10.4087 63.849 10.516 64.0437C10.6276 64.2343 10.78 64.3835 10.9732 64.4912C11.1707 64.5948 11.3918 64.6466 11.6365 64.6466C11.8382 64.6466 12.025 64.6073 12.1967 64.5285C12.3684 64.4498 12.5101 64.3296 12.6217 64.168L12.963 64.3918C12.8299 64.6031 12.6475 64.7647 12.4156 64.8766C12.1838 64.9843 11.9241 65.0382 11.6365 65.0382Z" fill="white"/>
<path d="M15.0459 61.7129C15.4881 61.7129 15.8273 61.8206 16.0634 62.0361C16.2995 62.2474 16.4175 62.5623 16.4175 62.9809V65.0071H15.9797V64.4974C15.8766 64.6673 15.7242 64.7999 15.5225 64.8952C15.325 64.9905 15.0889 65.0382 14.8141 65.0382C14.4364 65.0382 14.1359 64.9512 13.9126 64.7771C13.6894 64.6031 13.5778 64.3731 13.5778 64.0872C13.5778 63.8096 13.6808 63.5858 13.8869 63.4159C14.0972 63.2461 14.4299 63.1611 14.885 63.1611H15.9603V62.9622C15.9603 62.6804 15.8788 62.467 15.7156 62.322C15.5525 62.1728 15.3143 62.0983 15.0009 62.0983C14.7862 62.0983 14.5802 62.1335 14.3827 62.2039C14.1852 62.2702 14.0157 62.3634 13.874 62.4836L13.6679 62.1542C13.8396 62.0133 14.0457 61.9056 14.2861 61.831C14.5265 61.7523 14.7798 61.7129 15.0459 61.7129ZM14.885 64.6901C15.1425 64.6901 15.3636 64.6342 15.5482 64.5223C15.7328 64.4063 15.8702 64.2405 15.9603 64.0251V63.4905H14.8978C14.3183 63.4905 14.0285 63.6853 14.0285 64.0748C14.0285 64.2654 14.1037 64.4166 14.2539 64.5285C14.4042 64.6363 14.6145 64.6901 14.885 64.6901Z" fill="white"/>
<path d="M19.443 64.8082C19.3571 64.8828 19.2498 64.9408 19.121 64.9823C18.9965 65.0195 18.8656 65.0382 18.7282 65.0382C18.4106 65.0382 18.1659 64.9553 17.9942 64.7896C17.8224 64.6238 17.7366 64.3897 17.7366 64.0872V62.1107H17.1313V61.7378H17.7366V61.023H18.1938V61.7378H19.2241V62.1107H18.1938V64.0624C18.1938 64.2571 18.2431 64.4063 18.3419 64.5099C18.4449 64.6093 18.5909 64.659 18.7798 64.659C18.8742 64.659 18.9643 64.6445 19.0502 64.6155C19.1404 64.5865 19.2176 64.5451 19.282 64.4912L19.443 64.8082Z" fill="white"/>
<path d="M21.9709 64.8082C21.8851 64.8828 21.7778 64.9408 21.649 64.9823C21.5245 65.0195 21.3936 65.0382 21.2562 65.0382C20.9385 65.0382 20.6938 64.9553 20.5221 64.7896C20.3504 64.6238 20.2645 64.3897 20.2645 64.0872V62.1107H19.6592V61.7378H20.2645V61.023H20.7217V61.7378H21.752V62.1107H20.7217V64.0624C20.7217 64.2571 20.7711 64.4063 20.8698 64.5099C20.9728 64.6093 21.1188 64.659 21.3077 64.659C21.4021 64.659 21.4923 64.6445 21.5781 64.6155C21.6683 64.5865 21.7456 64.5451 21.81 64.4912L21.9709 64.8082Z" fill="white"/>
<path d="M22.8032 60.3952H23.2604V65.0071H22.8032V60.3952Z" fill="white"/>
<path d="M27.4818 63.5092H24.6484C24.6742 63.849 24.8094 64.1245 25.0541 64.3358C25.2988 64.543 25.6079 64.6466 25.9814 64.6466C26.1917 64.6466 26.3849 64.6114 26.5609 64.541C26.7369 64.4664 26.8893 64.3586 27.0181 64.2177L27.2757 64.5037C27.1254 64.6777 26.9366 64.8103 26.709 64.9015C26.4858 64.9926 26.239 65.0382 25.9685 65.0382C25.6208 65.0382 25.3117 64.9678 25.0412 64.8269C24.7751 64.6818 24.5669 64.4829 24.4166 64.2302C24.2664 63.9774 24.1913 63.6915 24.1913 63.3724C24.1913 63.0534 24.2621 62.7675 24.4038 62.5147C24.5497 62.2619 24.7472 62.0651 24.9962 61.9242C25.2495 61.7833 25.5328 61.7129 25.8462 61.7129C26.1595 61.7129 26.4407 61.7833 26.6897 61.9242C26.9387 62.0651 27.134 62.2619 27.2757 62.5147C27.4174 62.7633 27.4882 63.0492 27.4882 63.3724L27.4818 63.5092ZM25.8462 62.092C25.5199 62.092 25.2452 62.1936 25.0219 62.3966C24.803 62.5955 24.6785 62.8565 24.6484 63.1798H27.0503C27.0203 62.8565 26.8936 62.5955 26.6704 62.3966C26.4515 62.1936 26.1767 62.092 25.8462 62.092Z" fill="white"/>
<path d="M34.3283 61.7129C34.7533 61.7129 35.086 61.831 35.3264 62.0672C35.5711 62.3034 35.6934 62.6514 35.6934 63.1114V65.0071H35.2362V63.1549C35.2362 62.8151 35.1504 62.5561 34.9786 62.378C34.8112 62.1998 34.573 62.1107 34.2639 62.1107C33.9119 62.1107 33.635 62.2163 33.4332 62.4277C33.2314 62.6349 33.1306 62.9228 33.1306 63.2916V65.0071H32.6734V63.1549C32.6734 62.8151 32.5875 62.5561 32.4158 62.378C32.2484 62.1998 32.008 62.1107 31.6946 62.1107C31.3469 62.1107 31.07 62.2163 30.8639 62.4277C30.6621 62.6349 30.5613 62.9228 30.5613 63.2916V65.0071H30.1041V61.7378H30.5419V62.3344C30.6621 62.1355 30.8296 61.9822 31.0442 61.8745C31.2589 61.7668 31.5057 61.7129 31.7847 61.7129C32.0681 61.7129 32.3128 61.7709 32.5188 61.8869C32.7292 62.0029 32.8859 62.1749 32.9889 62.4028C33.1134 62.1873 33.2915 62.0195 33.5233 61.8994C33.7595 61.775 34.0278 61.7129 34.3283 61.7129Z" fill="white"/>
<path d="M38.3303 65.0382C38.004 65.0382 37.71 64.9678 37.4481 64.8269C37.1863 64.6818 36.9802 64.4829 36.8299 64.2302C36.6797 63.9774 36.6046 63.6915 36.6046 63.3724C36.6046 63.0534 36.6797 62.7675 36.8299 62.5147C36.9802 62.2619 37.1863 62.0651 37.4481 61.9242C37.71 61.7833 38.004 61.7129 38.3303 61.7129C38.6566 61.7129 38.9506 61.7833 39.2125 61.9242C39.4744 62.0651 39.6783 62.2619 39.8242 62.5147C39.9745 62.7675 40.0496 63.0534 40.0496 63.3724C40.0496 63.6915 39.9745 63.9774 39.8242 64.2302C39.6783 64.4829 39.4744 64.6818 39.2125 64.8269C38.9506 64.9678 38.6566 65.0382 38.3303 65.0382ZM38.3303 64.6466C38.5707 64.6466 38.7854 64.5948 38.9742 64.4912C39.1674 64.3835 39.3177 64.2322 39.425 64.0375C39.5323 63.8427 39.586 63.6211 39.586 63.3724C39.586 63.1238 39.5323 62.9021 39.425 62.7074C39.3177 62.5126 39.1674 62.3634 38.9742 62.2599C38.7854 62.1521 38.5707 62.0983 38.3303 62.0983C38.0899 62.0983 37.8731 62.1521 37.6799 62.2599C37.491 62.3634 37.3408 62.5126 37.2292 62.7074C37.1219 62.9021 37.0682 63.1238 37.0682 63.3724C37.0682 63.6211 37.1219 63.8427 37.2292 64.0375C37.3408 64.2322 37.491 64.3835 37.6799 64.4912C37.8731 64.5948 38.0899 64.6466 38.3303 64.6466Z" fill="white"/>
<path d="M42.7088 61.7129C43.1337 61.7129 43.4707 61.8331 43.7197 62.0734C43.973 62.3096 44.0996 62.6556 44.0996 63.1114V65.0071H43.6425V63.1549C43.6425 62.8151 43.5544 62.5561 43.3784 62.378C43.2024 62.1998 42.9513 62.1107 42.625 62.1107C42.2601 62.1107 41.9704 62.2163 41.7557 62.4277C41.5454 62.6349 41.4402 62.9228 41.4402 63.2916V65.0071H40.983V61.7378H41.4209V62.3407C41.5454 62.1418 41.7171 61.9884 41.936 61.8807C42.1593 61.7688 42.4168 61.7129 42.7088 61.7129Z" fill="white"/>
<path d="M45.3409 61.7378H45.7981V65.0071H45.3409V61.7378ZM45.5727 61.023C45.4782 61.023 45.3988 60.9919 45.3344 60.9297C45.27 60.8676 45.2378 60.793 45.2378 60.706C45.2378 60.6231 45.27 60.5506 45.3344 60.4884C45.3988 60.4263 45.4782 60.3952 45.5727 60.3952C45.6671 60.3952 45.7466 60.4263 45.8109 60.4884C45.8753 60.5464 45.9075 60.6169 45.9075 60.6998C45.9075 60.7909 45.8753 60.8676 45.8109 60.9297C45.7466 60.9919 45.6671 61.023 45.5727 61.023Z" fill="white"/>
<path d="M48.8539 64.8082C48.768 64.8828 48.6607 64.9408 48.5319 64.9823C48.4074 65.0195 48.2765 65.0382 48.1391 65.0382C47.8214 65.0382 47.5767 64.9553 47.405 64.7896C47.2333 64.6238 47.1475 64.3897 47.1475 64.0872V62.1107H46.5422V61.7378H47.1475V61.023H47.6047V61.7378H48.6349V62.1107H47.6047V64.0624C47.6047 64.2571 47.654 64.4063 47.7528 64.5099C47.8558 64.6093 48.0017 64.659 48.1906 64.659C48.2851 64.659 48.3752 64.6445 48.4611 64.6155C48.5512 64.5865 48.6285 64.5451 48.6929 64.4912L48.8539 64.8082Z" fill="white"/>
<path d="M50.9511 65.0382C50.6249 65.0382 50.3308 64.9678 50.069 64.8269C49.8071 64.6818 49.601 64.4829 49.4508 64.2302C49.3005 63.9774 49.2254 63.6915 49.2254 63.3724C49.2254 63.0534 49.3005 62.7675 49.4508 62.5147C49.601 62.2619 49.8071 62.0651 50.069 61.9242C50.3308 61.7833 50.6249 61.7129 50.9511 61.7129C51.2774 61.7129 51.5715 61.7833 51.8333 61.9242C52.0952 62.0651 52.2991 62.2619 52.4451 62.5147C52.5953 62.7675 52.6704 63.0534 52.6704 63.3724C52.6704 63.6915 52.5953 63.9774 52.4451 64.2302C52.2991 64.4829 52.0952 64.6818 51.8333 64.8269C51.5715 64.9678 51.2774 65.0382 50.9511 65.0382ZM50.9511 64.6466C51.1915 64.6466 51.4062 64.5948 51.5951 64.4912C51.7883 64.3835 51.9385 64.2322 52.0458 64.0375C52.1531 63.8427 52.2068 63.6211 52.2068 63.3724C52.2068 63.1238 52.1531 62.9021 52.0458 62.7074C51.9385 62.5126 51.7883 62.3634 51.5951 62.2599C51.4062 62.1521 51.1915 62.0983 50.9511 62.0983C50.7107 62.0983 50.4939 62.1521 50.3008 62.2599C50.1119 62.3634 49.9616 62.5126 49.85 62.7074C49.7427 62.9021 49.689 63.1238 49.689 63.3724C49.689 63.6211 49.7427 63.8427 49.85 64.0375C49.9616 64.2322 50.1119 64.3835 50.3008 64.4912C50.4939 64.5948 50.7107 64.6466 50.9511 64.6466Z" fill="white"/>
<path d="M54.0417 62.378C54.149 62.1583 54.3079 61.9926 54.5182 61.8807C54.7329 61.7688 54.9969 61.7129 55.3103 61.7129V62.1418L55.2008 62.1355C54.8445 62.1355 54.5654 62.2412 54.3637 62.4525C54.1619 62.6639 54.061 62.9601 54.061 63.3414V65.0071H53.6038V61.7378H54.0417V62.378Z" fill="white"/>
<path d="M56.1381 61.7378H56.5953V65.0071H56.1381V61.7378ZM56.3699 61.023C56.2754 61.023 56.196 60.9919 56.1316 60.9297C56.0672 60.8676 56.035 60.793 56.035 60.706C56.035 60.6231 56.0672 60.5506 56.1316 60.4884C56.196 60.4263 56.2754 60.3952 56.3699 60.3952C56.4643 60.3952 56.5437 60.4263 56.6081 60.4884C56.6725 60.5464 56.7047 60.6169 56.7047 60.6998C56.7047 60.7909 56.6725 60.8676 56.6081 60.9297C56.5437 60.9919 56.4643 61.023 56.3699 61.023Z" fill="white"/>
<path d="M59.5931 61.7129C60.0181 61.7129 60.3551 61.8331 60.6041 62.0734C60.8574 62.3096 60.984 62.6556 60.984 63.1114V65.0071H60.5268V63.1549C60.5268 62.8151 60.4388 62.5561 60.2628 62.378C60.0868 62.1998 59.8357 62.1107 59.5094 62.1107C59.1445 62.1107 58.8547 62.2163 58.6401 62.4277C58.4297 62.6349 58.3246 62.9228 58.3246 63.2916V65.0071H57.8674V61.7378H58.3053V62.3407C58.4297 62.1418 58.6015 61.9884 58.8204 61.8807C59.0436 61.7688 59.3012 61.7129 59.5931 61.7129Z" fill="white"/>
<path d="M65.3738 61.7378V64.6093C65.3738 65.1646 65.2321 65.5748 64.9488 65.84C64.6697 66.1093 64.2469 66.244 63.6802 66.244C63.3669 66.244 63.0685 66.1984 62.7852 66.1073C62.5061 66.0202 62.2786 65.898 62.1026 65.7405L62.3344 65.4049C62.4975 65.5458 62.695 65.6556 62.9268 65.7343C63.1629 65.8131 63.4098 65.8524 63.6674 65.8524C64.0966 65.8524 64.4122 65.755 64.6139 65.5603C64.8157 65.3697 64.9166 65.0713 64.9166 64.6653V64.2488C64.7749 64.456 64.5882 64.6135 64.3564 64.7212C64.1288 64.8289 63.8756 64.8828 63.5965 64.8828C63.2789 64.8828 62.9891 64.8165 62.7272 64.6839C62.4696 64.5472 62.2657 64.3586 62.1155 64.1183C61.9695 63.8738 61.8965 63.5983 61.8965 63.2916C61.8965 62.985 61.9695 62.7115 62.1155 62.4712C62.2657 62.2309 62.4696 62.0444 62.7272 61.9118C62.9848 61.7792 63.2746 61.7129 63.5965 61.7129C63.8841 61.7129 64.1439 61.7688 64.3757 61.8807C64.6075 61.9926 64.7942 62.1542 64.9359 62.3655V61.7378H65.3738ZM63.6416 64.4912C63.8863 64.4912 64.1074 64.4415 64.3048 64.3421C64.5023 64.2385 64.6547 64.0955 64.762 63.9132C64.8737 63.7309 64.9295 63.5237 64.9295 63.2916C64.9295 63.0596 64.8737 62.8545 64.762 62.6763C64.6547 62.494 64.5023 62.3531 64.3048 62.2536C64.1117 62.1501 63.8906 62.0983 63.6416 62.0983C63.3969 62.0983 63.1758 62.148 62.9783 62.2474C62.7852 62.3469 62.6328 62.4878 62.5212 62.6701C62.4138 62.8524 62.3602 63.0596 62.3602 63.2916C62.3602 63.5237 62.4138 63.7309 62.5212 63.9132C62.6328 64.0955 62.7852 64.2385 62.9783 64.3421C63.1758 64.4415 63.3969 64.4912 63.6416 64.4912Z" fill="white"/>
<path d="M69.5224 61.7129C69.9646 61.7129 70.3037 61.8206 70.5398 62.0361C70.7759 62.2474 70.894 62.5623 70.894 62.9809V65.0071H70.4561V64.4974C70.3531 64.6673 70.2007 64.7999 69.9989 64.8952C69.8015 64.9905 69.5653 65.0382 69.2906 65.0382C68.9128 65.0382 68.6123 64.9512 68.3891 64.7771C68.1659 64.6031 68.0542 64.3731 68.0542 64.0872C68.0542 63.8096 68.1573 63.5858 68.3633 63.4159C68.5737 63.2461 68.9064 63.1611 69.3614 63.1611H70.4368V62.9622C70.4368 62.6804 70.3552 62.467 70.1921 62.322C70.029 62.1728 69.7907 62.0983 69.4773 62.0983C69.2627 62.0983 69.0566 62.1335 68.8592 62.2039C68.6617 62.2702 68.4921 62.3634 68.3505 62.4836L68.1444 62.1542C68.3161 62.0133 68.5222 61.9056 68.7626 61.831C69.003 61.7523 69.2563 61.7129 69.5224 61.7129ZM69.3614 64.6901C69.619 64.6901 69.8401 64.6342 70.0247 64.5223C70.2093 64.4063 70.3466 64.2405 70.4368 64.0251V63.4905H69.3743C68.7948 63.4905 68.505 63.6853 68.505 64.0748C68.505 64.2654 68.5801 64.4166 68.7304 64.5285C68.8806 64.6363 69.091 64.6901 69.3614 64.6901Z" fill="white"/>
<path d="M73.8615 61.7129C74.2865 61.7129 74.6235 61.8331 74.8725 62.0734C75.1258 62.3096 75.2524 62.6556 75.2524 63.1114V65.0071H74.7952V63.1549C74.7952 62.8151 74.7072 62.5561 74.5312 62.378C74.3552 62.1998 74.1041 62.1107 73.7778 62.1107C73.4129 62.1107 73.1231 62.2163 72.9085 62.4277C72.6981 62.6349 72.593 62.9228 72.593 63.2916V65.0071H72.1358V61.7378H72.5736V62.3407C72.6981 62.1418 72.8699 61.9884 73.0888 61.8807C73.312 61.7688 73.5696 61.7129 73.8615 61.7129Z" fill="white"/>
<path d="M79.5971 60.3952V65.0071H79.1592V64.3607C79.0218 64.5803 78.8394 64.7481 78.6119 64.8642C78.3886 64.9802 78.1354 65.0382 77.852 65.0382C77.5344 65.0382 77.2467 64.9678 76.9892 64.8269C76.7316 64.686 76.5298 64.4892 76.3839 64.2364C76.2379 63.9836 76.1649 63.6956 76.1649 63.3724C76.1649 63.0492 76.2379 62.7612 76.3839 62.5085C76.5298 62.2557 76.7316 62.061 76.9892 61.9242C77.2467 61.7833 77.5344 61.7129 77.852 61.7129C78.1268 61.7129 78.3736 61.7688 78.5926 61.8807C78.8158 61.9884 78.9982 62.148 79.1399 62.3593V60.3952H79.5971ZM77.8907 64.6466C78.1268 64.6466 78.3393 64.5948 78.5282 64.4912C78.7213 64.3835 78.8716 64.2322 78.9789 64.0375C79.0905 63.8427 79.1463 63.6211 79.1463 63.3724C79.1463 63.1238 79.0905 62.9021 78.9789 62.7074C78.8716 62.5126 78.7213 62.3634 78.5282 62.2599C78.3393 62.1521 78.1268 62.0983 77.8907 62.0983C77.6503 62.0983 77.4335 62.1521 77.2403 62.2599C77.0514 62.3634 76.9012 62.5126 76.7896 62.7074C76.6822 62.9021 76.6286 63.1238 76.6286 63.3724C76.6286 63.6211 76.6822 63.8427 76.7896 64.0375C76.9012 64.2322 77.0514 64.3835 77.2403 64.4912C77.4335 64.5948 77.6503 64.6466 77.8907 64.6466Z" fill="white"/>
<path d="M83.7405 61.7129C84.1827 61.7129 84.5218 61.8206 84.7579 62.0361C84.994 62.2474 85.1121 62.5623 85.1121 62.9809V65.0071H84.6742V64.4974C84.5712 64.6673 84.4188 64.7999 84.217 64.8952C84.0195 64.9905 83.7834 65.0382 83.5087 65.0382C83.1309 65.0382 82.8304 64.9512 82.6072 64.7771C82.3839 64.6031 82.2723 64.3731 82.2723 64.0872C82.2723 63.8096 82.3754 63.5858 82.5814 63.4159C82.7918 63.2461 83.1245 63.1611 83.5795 63.1611H84.6549V62.9622C84.6549 62.6804 84.5733 62.467 84.4102 62.322C84.2471 62.1728 84.0088 62.0983 83.6954 62.0983C83.4808 62.0983 83.2747 62.1335 83.0772 62.2039C82.8798 62.2702 82.7102 62.3634 82.5685 62.4836L82.3625 62.1542C82.5342 62.0133 82.7403 61.9056 82.9807 61.831C83.2211 61.7523 83.4743 61.7129 83.7405 61.7129ZM83.5795 64.6901C83.8371 64.6901 84.0582 64.6342 84.2428 64.5223C84.4274 64.4063 84.5647 64.2405 84.6549 64.0251V63.4905H83.5924C83.0129 63.4905 82.7231 63.6853 82.7231 64.0748C82.7231 64.2654 82.7982 64.4166 82.9485 64.5285C83.0987 64.6363 83.3091 64.6901 83.5795 64.6901Z" fill="white"/>
<path d="M88.0796 61.7129C88.5046 61.7129 88.8416 61.8331 89.0906 62.0734C89.3439 62.3096 89.4705 62.6556 89.4705 63.1114V65.0071H89.0133V63.1549C89.0133 62.8151 88.9253 62.5561 88.7493 62.378C88.5733 62.1998 88.3222 62.1107 87.9959 62.1107C87.631 62.1107 87.3412 62.2163 87.1266 62.4277C86.9162 62.6349 86.8111 62.9228 86.8111 63.2916V65.0071H86.3539V61.7378H86.7917V62.3407C86.9162 62.1418 87.0879 61.9884 87.3069 61.8807C87.5301 61.7688 87.7877 61.7129 88.0796 61.7129Z" fill="white"/>
<path d="M91.8966 61.7129C92.3387 61.7129 92.6779 61.8206 92.914 62.0361C93.1501 62.2474 93.2681 62.5623 93.2681 62.9809V65.0071H92.8303V64.4974C92.7272 64.6673 92.5748 64.7999 92.3731 64.8952C92.1756 64.9905 91.9395 65.0382 91.6647 65.0382C91.287 65.0382 90.9865 64.9512 90.7632 64.7771C90.54 64.6031 90.4284 64.3731 90.4284 64.0872C90.4284 63.8096 90.5314 63.5858 90.7375 63.4159C90.9478 63.2461 91.2805 63.1611 91.7356 63.1611H92.8109V62.9622C92.8109 62.6804 92.7294 62.467 92.5663 62.322C92.4031 62.1728 92.1649 62.0983 91.8515 62.0983C91.6368 62.0983 91.4308 62.1335 91.2333 62.2039C91.0358 62.2702 90.8663 62.3634 90.7246 62.4836L90.5185 62.1542C90.6903 62.0133 90.8963 61.9056 91.1367 61.831C91.3771 61.7523 91.6304 61.7129 91.8966 61.7129ZM91.7356 64.6901C91.9932 64.6901 92.2142 64.6342 92.3988 64.5223C92.5834 64.4063 92.7208 64.2405 92.8109 64.0251V63.4905H91.7485C91.1689 63.4905 90.8792 63.6853 90.8792 64.0748C90.8792 64.2654 90.9543 64.4166 91.1045 64.5285C91.2548 64.6363 91.4651 64.6901 91.7356 64.6901Z" fill="white"/>
<path d="M94.5099 60.3952H94.9671V65.0071H94.5099V60.3952Z" fill="white"/>
<path d="M99.0854 61.7378L97.3919 65.3987C97.2545 65.7053 97.0957 65.9229 96.9154 66.0513C96.7351 66.1798 96.5183 66.244 96.265 66.244C96.1019 66.244 95.9495 66.2191 95.8078 66.1694C95.6661 66.1197 95.5438 66.0451 95.4408 65.9457L95.6533 65.6162C95.825 65.782 96.031 65.8649 96.2714 65.8649C96.426 65.8649 96.5569 65.8234 96.6642 65.7405C96.7758 65.6577 96.8789 65.5168 96.9733 65.3179L97.1214 65.0009L95.6082 61.7378H96.0847L97.3597 64.5161L98.6347 61.7378H99.0854Z" fill="white"/>
<path d="M101.607 64.8082C101.521 64.8828 101.414 64.9408 101.285 64.9823C101.161 65.0195 101.03 65.0382 100.893 65.0382C100.575 65.0382 100.33 64.9553 100.158 64.7896C99.9868 64.6238 99.9009 64.3897 99.9009 64.0872V62.1107H99.2956V61.7378H99.9009V61.023H100.358V61.7378H101.388V62.1107H100.358V64.0624C100.358 64.2571 100.407 64.4063 100.506 64.5099C100.609 64.6093 100.755 64.659 100.944 64.659C101.039 64.659 101.129 64.6445 101.215 64.6155C101.305 64.5865 101.382 64.5451 101.446 64.4912L101.607 64.8082Z" fill="white"/>
<path d="M102.44 61.7378H102.897V65.0071H102.44V61.7378ZM102.671 61.023C102.577 61.023 102.498 60.9919 102.433 60.9297C102.369 60.8676 102.337 60.793 102.337 60.706C102.337 60.6231 102.369 60.5506 102.433 60.4884C102.498 60.4263 102.577 60.3952 102.671 60.3952C102.766 60.3952 102.845 60.4263 102.91 60.4884C102.974 60.5464 103.006 60.6169 103.006 60.6998C103.006 60.7909 102.974 60.8676 102.91 60.9297C102.845 60.9919 102.766 61.023 102.671 61.023Z" fill="white"/>
<path d="M105.573 65.0382C105.238 65.0382 104.937 64.9678 104.671 64.8269C104.409 64.686 104.203 64.4892 104.053 64.2364C103.903 63.9795 103.828 63.6915 103.828 63.3724C103.828 63.0534 103.903 62.7675 104.053 62.5147C104.203 62.2619 104.409 62.0651 104.671 61.9242C104.937 61.7833 105.238 61.7129 105.573 61.7129C105.865 61.7129 106.124 61.7688 106.352 61.8807C106.584 61.9884 106.766 62.148 106.899 62.3593L106.558 62.5831C106.446 62.4215 106.305 62.3013 106.133 62.2226C105.961 62.1397 105.774 62.0983 105.573 62.0983C105.328 62.0983 105.107 62.1521 104.909 62.2599C104.716 62.3634 104.564 62.5126 104.452 62.7074C104.345 62.9021 104.291 63.1238 104.291 63.3724C104.291 63.6252 104.345 63.849 104.452 64.0437C104.564 64.2343 104.716 64.3835 104.909 64.4912C105.107 64.5948 105.328 64.6466 105.573 64.6466C105.774 64.6466 105.961 64.6073 106.133 64.5285C106.305 64.4498 106.446 64.3296 106.558 64.168L106.899 64.3918C106.766 64.6031 106.584 64.7647 106.352 64.8766C106.12 64.9843 105.86 65.0382 105.573 65.0382Z" fill="white"/>
<path d="M108.705 65.0382C108.431 65.0382 108.167 65.0009 107.913 64.9263C107.664 64.8476 107.469 64.7502 107.327 64.6342L107.533 64.2861C107.675 64.3939 107.853 64.4829 108.068 64.5534C108.282 64.6197 108.506 64.6528 108.737 64.6528C109.047 64.6528 109.274 64.6073 109.42 64.5161C109.57 64.4208 109.645 64.2882 109.645 64.1183C109.645 63.9981 109.605 63.9049 109.523 63.8386C109.442 63.7682 109.338 63.7164 109.214 63.6832C109.089 63.6459 108.924 63.6107 108.718 63.5775C108.443 63.5278 108.222 63.4781 108.055 63.4284C107.887 63.3745 107.744 63.2854 107.623 63.1611C107.508 63.0368 107.45 62.8648 107.45 62.6452C107.45 62.3717 107.568 62.148 107.804 61.9739C108.04 61.7999 108.368 61.7129 108.789 61.7129C109.008 61.7129 109.227 61.7419 109.446 61.7999C109.665 61.8538 109.845 61.9263 109.987 62.0175L109.787 62.3717C109.508 62.1853 109.175 62.092 108.789 62.092C108.497 62.092 108.276 62.1418 108.126 62.2412C107.98 62.3407 107.907 62.4712 107.907 62.6328C107.907 62.7571 107.948 62.8565 108.029 62.9311C108.115 63.0057 108.22 63.0617 108.345 63.099C108.469 63.1321 108.641 63.1673 108.86 63.2046C109.13 63.2543 109.347 63.3041 109.51 63.3538C109.673 63.4035 109.813 63.4885 109.929 63.6086C110.045 63.7288 110.103 63.8945 110.103 64.1059C110.103 64.3918 109.978 64.6197 109.729 64.7896C109.484 64.9553 109.143 65.0382 108.705 65.0382Z" fill="white"/>
<path d="M113.541 65.0382C113.266 65.0382 113.002 65.0009 112.749 64.9263C112.5 64.8476 112.305 64.7502 112.163 64.6342L112.369 64.2861C112.511 64.3939 112.689 64.4829 112.904 64.5534C113.118 64.6197 113.341 64.6528 113.573 64.6528C113.882 64.6528 114.11 64.6073 114.256 64.5161C114.406 64.4208 114.481 64.2882 114.481 64.1183C114.481 63.9981 114.44 63.9049 114.359 63.8386C114.277 63.7682 114.174 63.7164 114.05 63.6832C113.925 63.6459 113.76 63.6107 113.554 63.5775C113.279 63.5278 113.058 63.4781 112.891 63.4284C112.723 63.3745 112.579 63.2854 112.459 63.1611C112.343 63.0368 112.285 62.8648 112.285 62.6452C112.285 62.3717 112.403 62.148 112.64 61.9739C112.876 61.7999 113.204 61.7129 113.625 61.7129C113.844 61.7129 114.063 61.7419 114.282 61.7999C114.501 61.8538 114.681 61.9263 114.822 62.0175L114.623 62.3717C114.344 62.1853 114.011 62.092 113.625 62.092C113.333 62.092 113.112 62.1418 112.962 62.2412C112.816 62.3407 112.743 62.4712 112.743 62.6328C112.743 62.7571 112.783 62.8565 112.865 62.9311C112.951 63.0057 113.056 63.0617 113.18 63.099C113.305 63.1321 113.477 63.1673 113.696 63.2046C113.966 63.2543 114.183 63.3041 114.346 63.3538C114.509 63.4035 114.649 63.4885 114.765 63.6086C114.88 63.7288 114.938 63.8945 114.938 64.1059C114.938 64.3918 114.814 64.6197 114.565 64.7896C114.32 64.9553 113.979 65.0382 113.541 65.0382Z" fill="white"/>
<path d="M118.567 61.7378L116.873 65.3987C116.736 65.7053 116.577 65.9229 116.397 66.0513C116.217 66.1798 116 66.244 115.746 66.244C115.583 66.244 115.431 66.2191 115.289 66.1694C115.148 66.1197 115.025 66.0451 114.922 65.9457L115.135 65.6162C115.306 65.782 115.513 65.8649 115.753 65.8649C115.907 65.8649 116.038 65.8234 116.146 65.7405C116.257 65.6577 116.36 65.5168 116.455 65.3179L116.603 65.0009L115.09 61.7378H115.566L116.841 64.5161L118.116 61.7378H118.567Z" fill="white"/>
<path d="M120.081 65.0382C119.806 65.0382 119.542 65.0009 119.289 64.9263C119.04 64.8476 118.845 64.7502 118.703 64.6342L118.909 64.2861C119.051 64.3939 119.229 64.4829 119.444 64.5534C119.658 64.6197 119.881 64.6528 120.113 64.6528C120.422 64.6528 120.65 64.6073 120.796 64.5161C120.946 64.4208 121.021 64.2882 121.021 64.1183C121.021 63.9981 120.98 63.9049 120.899 63.8386C120.817 63.7682 120.714 63.7164 120.59 63.6832C120.465 63.6459 120.3 63.6107 120.094 63.5775C119.819 63.5278 119.598 63.4781 119.431 63.4284C119.263 63.3745 119.119 63.2854 118.999 63.1611C118.883 63.0368 118.825 62.8648 118.825 62.6452C118.825 62.3717 118.943 62.148 119.179 61.9739C119.416 61.7999 119.744 61.7129 120.165 61.7129C120.384 61.7129 120.603 61.7419 120.822 61.7999C121.04 61.8538 121.221 61.9263 121.362 62.0175L121.163 62.3717C120.884 62.1853 120.551 62.092 120.165 62.092C119.873 62.092 119.652 62.1418 119.501 62.2412C119.356 62.3407 119.283 62.4712 119.283 62.6328C119.283 62.7571 119.323 62.8565 119.405 62.9311C119.491 63.0057 119.596 63.0617 119.72 63.099C119.845 63.1321 120.017 63.1673 120.236 63.2046C120.506 63.2543 120.723 63.3041 120.886 63.3538C121.049 63.4035 121.189 63.4885 121.304 63.6086C121.42 63.7288 121.478 63.8945 121.478 64.1059C121.478 64.3918 121.354 64.6197 121.105 64.7896C120.86 64.9553 120.519 65.0382 120.081 65.0382Z" fill="white"/>
<path d="M124.107 64.8082C124.021 64.8828 123.914 64.9408 123.785 64.9823C123.661 65.0195 123.53 65.0382 123.392 65.0382C123.075 65.0382 122.83 64.9553 122.658 64.7896C122.487 64.6238 122.401 64.3897 122.401 64.0872V62.1107H121.796V61.7378H122.401V61.023H122.858V61.7378H123.888V62.1107H122.858V64.0624C122.858 64.2571 122.907 64.4063 123.006 64.5099C123.109 64.6093 123.255 64.659 123.444 64.659C123.538 64.659 123.629 64.6445 123.714 64.6155C123.805 64.5865 123.882 64.5451 123.946 64.4912L124.107 64.8082Z" fill="white"/>
<path d="M127.769 63.5092H124.936C124.962 63.849 125.097 64.1245 125.342 64.3358C125.586 64.543 125.895 64.6466 126.269 64.6466C126.479 64.6466 126.672 64.6114 126.848 64.541C127.024 64.4664 127.177 64.3586 127.306 64.2177L127.563 64.5037C127.413 64.6777 127.224 64.8103 126.997 64.9015C126.773 64.9926 126.526 65.0382 126.256 65.0382C125.908 65.0382 125.599 64.9678 125.329 64.8269C125.063 64.6818 124.854 64.4829 124.704 64.2302C124.554 63.9774 124.479 63.6915 124.479 63.3724C124.479 63.0534 124.55 62.7675 124.691 62.5147C124.837 62.2619 125.035 62.0651 125.284 61.9242C125.537 61.7833 125.82 61.7129 126.134 61.7129C126.447 61.7129 126.728 61.7833 126.977 61.9242C127.226 62.0651 127.422 62.2619 127.563 62.5147C127.705 62.7633 127.776 63.0492 127.776 63.3724L127.769 63.5092ZM126.134 62.092C125.807 62.092 125.533 62.1936 125.309 62.3966C125.09 62.5955 124.966 62.8565 124.936 63.1798H127.338C127.308 62.8565 127.181 62.5955 126.958 62.3966C126.739 62.1936 126.464 62.092 126.134 62.092Z" fill="white"/>
<path d="M132.93 61.7129C133.355 61.7129 133.688 61.831 133.929 62.0672C134.173 62.3034 134.296 62.6514 134.296 63.1114V65.0071H133.838V63.1549C133.838 62.8151 133.753 62.5561 133.581 62.378C133.413 62.1998 133.175 62.1107 132.866 62.1107C132.514 62.1107 132.237 62.2163 132.035 62.4277C131.834 62.6349 131.733 62.9228 131.733 63.2916V65.0071H131.276V63.1549C131.276 62.8151 131.19 62.5561 131.018 62.378C130.851 62.1998 130.61 62.1107 130.297 62.1107C129.949 62.1107 129.672 62.2163 129.466 62.4277C129.264 62.6349 129.163 62.9228 129.163 63.2916V65.0071H128.706V61.7378H129.144V62.3344C129.264 62.1355 129.432 61.9822 129.646 61.8745C129.861 61.7668 130.108 61.7129 130.387 61.7129C130.67 61.7129 130.915 61.7709 131.121 61.8869C131.331 62.0029 131.488 62.1749 131.591 62.4028C131.716 62.1873 131.894 62.0195 132.126 61.8994C132.362 61.775 132.63 61.7129 132.93 61.7129Z" fill="white"/>
<path d="M31.2353 9.09875C23.4761 10.2382 17.1199 14.1548 13.6728 17.3888L12.0785 15.7289C15.8143 12.2241 22.5932 8.05408 30.8949 6.83495C39.2502 5.60794 49.0848 7.38292 58.7899 15.694L57.2734 17.4237C48.0927 9.5616 38.9408 7.96717 31.2353 9.09875Z" fill="#00BCEA"/>
<path d="M32.5885 18.8842C27.4101 19.6485 23.2052 22.2782 20.95 24.4375L19.3387 22.7937C21.8864 20.3544 26.5197 17.4659 32.2465 16.6207C38.0266 15.7676 44.8503 17.0095 51.6437 22.7455L50.1395 24.4856C43.8621 19.1852 37.7137 18.1278 32.5885 18.8842Z" fill="#00BCEA"/>
<path d="M27.8958 31.3682C28.9935 30.3204 31.1261 29.0065 33.8367 28.6249C36.5026 28.2496 39.7904 28.7653 43.3002 31.4501L44.7175 29.6402C40.7142 26.5778 36.7976 25.8963 33.5102 26.3591C30.2675 26.8156 27.698 28.3752 26.2871 29.722L27.8958 31.3682Z" fill="#00BCEA"/>
</svg>
